<svg version="1.1" viewBox="0.0 0.0 600.0 371.0" fill="none" stroke="none" stroke-linecap="square" stroke-miterlimit="10" width="600" height="371" xmlns:xlink="http://www.w3.org/1999/xlink" xmlns="http://www.w3.org/2000/svg"><path fill="#ffffff" d="M0 0L600.0 0L600.0 371.0L0 371.0L0 0Z" fill-rule="nonzero"/><path stroke="#cccccc" stroke-width="1.0" stroke-linecap="butt" d="M59.5 61.5L59.5 274.5" fill-rule="nonzero"/><path stroke="#cccccc" stroke-width="1.0" stroke-linecap="butt" d="M233.5 61.5L233.5 274.5" fill-rule="nonzero"/><path stroke="#cccccc" stroke-width="1.0" stroke-linecap="butt" d="M407.5 61.5L407.5 274.5" fill-rule="nonzero"/><path stroke="#cccccc" stroke-width="1.0" stroke-linecap="butt" d="M581.5 61.5L581.5 274.5" fill-rule="nonzero"/><path stroke="#cccccc" stroke-width="1.0" stroke-linecap="butt" d="M59.5 254.5L581.5 254.5" fill-rule="nonzero"/><path stroke="#cccccc" stroke-width="1.0" stroke-linecap="butt" d="M59.5 206.5L581.5 206.5" fill-rule="nonzero"/><path stroke="#cccccc" stroke-width="1.0" stroke-linecap="butt" d="M59.5 185.5L581.5 185.5" fill-rule="nonzero"/><path stroke="#cccccc" stroke-width="1.0" stroke-linecap="butt" d="M59.5 138.5L581.5 138.5" fill-rule="nonzero"/><path stroke="#cccccc" stroke-width="1.0" stroke-linecap="butt" d="M59.5 117.5L581.5 117.5" fill-rule="nonzero"/><path stroke="#cccccc" stroke-width="1.0" stroke-linecap="butt" d="M59.5 69.5L581.5 69.5" fill-rule="nonzero"/><clipPath id="id_0"><path d="M59.55 61.916668L581.45 61.916668L581.45 274.08334L59.55 274.08334L59.55 61.916668Z" clip-rule="nonzero"/></clipPath><path stroke="#4285f4" stroke-width="2.0" stroke-linecap="butt" clip-path="url(#id_0)" d="M59.55 274.08334L146.53334 253.53958L233.51666 232.8509L320.5 212.30714L407.48334 191.79956L494.46667 171.25581L581.45 150.70302" fill-rule="nonzero"/><path stroke="#ea4335" stroke-width="2.0" stroke-linecap="butt" clip-path="url(#id_0)" d="M59.55 185.20767L146.53334 164.64944L233.51666 144.09845L320.5 123.55109L407.48334 103.00552L494.46667 82.46087L581.45 61.916668" fill-rule="nonzero"/><path stroke="#fbbc04" stroke-width="2.0" stroke-linecap="butt" clip-path="url(#id_0)" d="M59.55 164.63496L146.53334 155.66327L233.51666 137.85042L320.5 105.91334L407.48334 86.75863L494.46667 76.7038L581.45 62.379295" fill-rule="nonzero"/><path fill="#000000" fill-opacity="0.0" clip-path="url(#id_0)" d="M62.55 274.08334C62.55 275.74017 61.206856 277.08334 59.55 277.08334C57.893147 277.08334 56.55 275.74017 56.55 274.08334C56.55 272.42648 57.893147 271.08334 59.55 271.08334C61.206856 271.08334 62.55 272.42648 62.55 274.08334Z" fill-rule="nonzero"/><path fill="#000000" fill-opacity="0.0" clip-path="url(#id_0)" d="M149.53334 253.53958C149.53334 255.19644 148.19019 256.53958 146.53334 256.53958C144.87648 256.53958 143.53334 255.19644 143.53334 253.53958C143.53334 251.88272 144.87648 250.53958 146.53334 250.53958C148.19019 250.53958 149.53334 251.88272 149.53334 253.53958Z" fill-rule="nonzero"/><path fill="#000000" fill-opacity="0.0" clip-path="url(#id_0)" d="M236.51666 232.8509C236.51666 234.50775 235.17352 235.8509 233.51666 235.8509C231.85982 235.8509 230.51666 234.50775 230.51666 232.8509C230.51666 231.19405 231.85982 229.8509 233.51666 229.8509C235.17352 229.8509 236.51666 231.19405 236.51666 232.8509Z" fill-rule="nonzero"/><path fill="#000000" fill-opacity="0.0" clip-path="url(#id_0)" d="M323.5 212.30714C323.5 213.964 322.15686 215.30714 320.5 215.30714C318.84314 215.30714 317.5 213.964 317.5 212.30714C317.5 210.6503 318.84314 209.30714 320.5 209.30714C322.15686 209.30714 323.5 210.6503 323.5 212.30714Z" fill-rule="nonzero"/><path fill="#000000" fill-opacity="0.0" clip-path="url(#id_0)" d="M410.48334 191.79956C410.48334 193.45642 409.1402 194.79956 407.48334 194.79956C405.82648 194.79956 404.48334 193.45642 404.48334 191.79956C404.48334 190.14272 405.82648 188.79956 407.48334 188.79956C409.1402 188.79956 410.48334 190.14272 410.48334 191.79956Z" fill-rule="nonzero"/><path fill="#000000" fill-opacity="0.0" clip-path="url(#id_0)" d="M497.46667 171.25581C497.46667 172.91267 496.12354 174.25581 494.46667 174.25581C492.8098 174.25581 491.46667 172.91267 491.46667 171.25581C491.46667 169.59897 492.8098 168.25581 494.46667 168.25581C496.12354 168.25581 497.46667 169.59897 497.46667 171.25581Z" fill-rule="nonzero"/><path fill="#000000" fill-opacity="0.0" clip-path="url(#id_0)" d="M584.45 150.70302C584.45 152.35988 583.1069 153.70302 581.45 153.70302C579.79315 153.70302 578.45 152.35988 578.45 150.70302C578.45 149.04616 579.79315 147.70302 581.45 147.70302C583.1069 147.70302 584.45 149.04616 584.45 150.70302Z" fill-rule="nonzero"/><path fill="#000000" fill-opacity="0.0" clip-path="url(#id_0)" d="M62.55 185.20767C62.55 186.86453 61.206856 188.20767 59.55 188.20767C57.893147 188.20767 56.55 186.86453 56.55 185.20767C56.55 183.55083 57.893147 182.20767 59.55 182.20767C61.206856 182.20767 62.55 183.55083 62.55 185.20767Z" fill-rule="nonzero"/><path fill="#000000" fill-opacity="0.0" clip-path="url(#id_0)" d="M149.53334 164.64944C149.53334 166.3063 148.19019 167.64944 146.53334 167.64944C144.87648 167.64944 143.53334 166.3063 143.53334 164.64944C143.53334 162.99258 144.87648 161.64944 146.53334 161.64944C148.19019 161.64944 149.53334 162.99258 149.53334 164.64944Z" fill-rule="nonzero"/><path fill="#000000" fill-opacity="0.0" clip-path="url(#id_0)" d="M236.51666 144.09845C236.51666 145.75531 235.17352 147.09845 233.51666 147.09845C231.85982 147.09845 230.51666 145.75531 230.51666 144.09845C230.51666 142.4416 231.85982 141.09845 233.51666 141.09845C235.17352 141.09845 236.51666 142.4416 236.51666 144.09845Z" fill-rule="nonzero"/><path fill="#000000" fill-opacity="0.0" clip-path="url(#id_0)" d="M323.5 123.55109C323.5 125.20794 322.15686 126.55109 320.5 126.55109C318.84314 126.55109 317.5 125.20794 317.5 123.55109C317.5 121.89423 318.84314 120.55109 320.5 120.55109C322.15686 120.55109 323.5 121.89423 323.5 123.55109Z" fill-rule="nonzero"/><path fill="#000000" fill-opacity="0.0" clip-path="url(#id_0)" d="M410.48334 103.00552C410.48334 104.66238 409.1402 106.00552 407.48334 106.00552C405.82648 106.00552 404.48334 104.66238 404.48334 103.00552C404.48334 101.34867 405.82648 100.00552 407.48334 100.00552C409.1402 100.00552 410.48334 101.34867 410.48334 103.00552Z" fill-rule="nonzero"/><path fill="#000000" fill-opacity="0.0" clip-path="url(#id_0)" d="M497.46667 82.46087C497.46667 84.11772 496.12354 85.46087 494.46667 85.46087C492.8098 85.46087 491.46667 84.11772 491.46667 82.46087C491.46667 80.804016 492.8098 79.46087 494.46667 79.46087C496.12354 79.46087 497.46667 80.804016 497.46667 82.46087Z" fill-rule="nonzero"/><path fill="#000000" fill-opacity="0.0" clip-path="url(#id_0)" d="M584.45 61.916668C584.45 63.57352 583.1069 64.916664 581.45 64.916664C579.79315 64.916664 578.45 63.57352 578.45 61.916668C578.45 60.25981 579.79315 58.916668 581.45 58.916668C583.1069 58.916668 584.45 60.25981 584.45 61.916668Z" fill-rule="nonzero"/><path fill="#000000" fill-opacity="0.0" clip-path="url(#id_0)" d="M62.55 164.63496C62.55 166.29182 61.206856 167.63496 59.55 167.63496C57.893147 167.63496 56.55 166.29182 56.55 164.63496C56.55 162.97812 57.893147 161.63496 59.55 161.63496C61.206856 161.63496 62.55 162.97812 62.55 164.63496Z" fill-rule="nonzero"/><path fill="#000000" fill-opacity="0.0" clip-path="url(#id_0)" d="M149.53334 155.66327C149.53334 157.32013 148.19019 158.66327 146.53334 158.66327C144.87648 158.66327 143.53334 157.32013 143.53334 155.66327C143.53334 154.00642 144.87648 152.66327 146.53334 152.66327C148.19019 152.66327 149.53334 154.00642 149.53334 155.66327Z" fill-rule="nonzero"/><path fill="#000000" fill-opacity="0.0" clip-path="url(#id_0)" d="M236.51666 137.85042C236.51666 139.50728 235.17352 140.85042 233.51666 140.85042C231.85982 140.85042 230.51666 139.50728 230.51666 137.85042C230.51666 136.19357 231.85982 134.85042 233.51666 134.85042C235.17352 134.85042 236.51666 136.19357 236.51666 137.85042Z" fill-rule="nonzero"/><path fill="#000000" fill-opacity="0.0" clip-path="url(#id_0)" d="M323.5 105.91334C323.5 107.57019 322.15686 108.91334 320.5 108.91334C318.84314 108.91334 317.5 107.57019 317.5 105.91334C317.5 104.25648 318.84314 102.91334 320.5 102.91334C322.15686 102.91334 323.5 104.25648 323.5 105.91334Z" fill-rule="nonzero"/><path fill="#000000" fill-opacity="0.0" clip-path="url(#id_0)" d="M410.48334 86.75863C410.48334 88.41548 409.1402 89.75863 407.48334 89.75863C405.82648 89.75863 404.48334 88.41548 404.48334 86.75863C404.48334 85.101776 405.82648 83.75863 407.48334 83.75863C409.1402 83.75863 410.48334 85.101776 410.48334 86.75863Z" fill-rule="nonzero"/><path fill="#000000" fill-opacity="0.0" clip-path="url(#id_0)" d="M497.46667 76.7038C497.46667 78.36065 496.12354 79.7038 494.46667 79.7038C492.8098 79.7038 491.46667 78.36065 491.46667 76.7038C491.46667 75.04694 492.8098 73.7038 494.46667 73.7038C496.12354 73.7038 497.46667 75.04694 497.46667 76.7038Z" fill-rule="nonzero"/><path fill="#000000" fill-opacity="0.0" clip-path="url(#id_0)" d="M584.45 62.379295C584.45 64.03615 583.1069 65.379295 581.45 65.379295C579.79315 65.379295 578.45 64.03615 578.45 62.379295C578.45 60.72244 579.79315 59.379295 581.45 59.379295C583.1069 59.379295 584.45 60.72244 584.45 62.379295Z" fill-rule="nonzero"/><path fill="#000000" d="M243.9375 323.08334L243.9375 314.4896L247.75 314.4896Q248.90625 314.4896 249.5 314.72397Q250.09375 314.95834 250.45312 315.5521Q250.8125 316.13022 250.8125 316.83334Q250.8125 317.75522 250.21875 318.38022Q249.625 319.00522 248.39062 319.1771Q248.84375 319.39584 249.07812 319.59897Q249.57812 320.0521 250.01562 320.7396L251.51562 323.08334L250.07812 323.08334L248.95312 321.3021Q248.45312 320.52084 248.125 320.1146Q247.8125 319.70834 247.54688 319.5521Q247.29688 319.38022 247.03125 319.3021Q246.84375 319.27084 246.40625 319.27084L245.07812 319.27084L245.07812 323.08334L243.9375 323.08334ZM245.07812 318.28647L247.53125 318.28647Q248.29688 318.28647 248.73438 318.13022Q249.1875 317.95834 249.40625 317.6146Q249.64062 317.25522 249.64062 316.83334Q249.64062 316.22397 249.1875 315.83334Q248.75 315.44272 247.79688 315.44272L245.07812 315.44272L245.07812 318.28647ZM257.04688 321.08334L258.14062 321.20834Q257.89062 322.16147 257.1875 322.69272Q256.48438 323.22397 255.40625 323.22397Q254.04688 323.22397 253.23438 322.38022Q252.4375 321.53647 252.4375 320.02084Q252.4375 318.45834 253.25 317.59897Q254.0625 316.72397 255.34375 316.72397Q256.59375 316.72397 257.375 317.56772Q258.17188 318.41147 258.17188 319.95834Q258.17188 320.0521 258.17188 320.2396L253.53125 320.2396Q253.59375 321.27084 254.10938 321.81772Q254.625 322.34897 255.40625 322.34897Q255.98438 322.34897 256.39062 322.0521Q256.8125 321.7396 257.04688 321.08334ZM253.59375 319.38022L257.0625 319.38022Q257.0 318.58334 256.67188 318.19272Q256.15625 317.58334 255.35938 317.58334Q254.625 317.58334 254.125 318.06772Q253.64062 318.5521 253.59375 319.38022ZM263.85938 322.31772Q263.26562 322.81772 262.71875 323.02084Q262.1875 323.22397 261.5625 323.22397Q260.53125 323.22397 259.98438 322.72397Q259.4375 322.22397 259.4375 321.44272Q259.4375 320.9896 259.64062 320.6146Q259.84375 320.22397 260.1875 320.00522Q260.53125 319.77084 260.95312 319.66147Q261.25 319.56772 261.89062 319.4896Q263.15625 319.34897 263.76562 319.13022Q263.76562 318.91147 263.76562 318.8646Q263.76562 318.20834 263.46875 317.94272Q263.0625 317.59897 262.26562 317.59897Q261.53125 317.59897 261.17188 317.8646Q260.8125 318.1146 260.64062 318.77084L259.60938 318.63022Q259.75 317.97397 260.07812 317.56772Q260.40625 317.16147 261.01562 316.94272Q261.625 316.72397 262.42188 316.72397Q263.21875 316.72397 263.71875 316.91147Q264.21875 317.09897 264.45312 317.38022Q264.6875 317.66147 264.78125 318.09897Q264.82812 318.3646 264.82812 319.06772L264.82812 320.47397Q264.82812 321.94272 264.89062 322.33334Q264.96875 322.72397 265.17188 323.08334L264.0625 323.08334Q263.90625 322.75522 263.85938 322.31772ZM263.76562 319.95834Q263.1875 320.19272 262.04688 320.3646Q261.39062 320.45834 261.125 320.58334Q260.85938 320.69272 260.70312 320.91147Q260.5625 321.13022 260.5625 321.41147Q260.5625 321.83334 260.875 322.1146Q261.20312 322.39584 261.8125 322.39584Q262.42188 322.39584 262.89062 322.13022Q263.375 321.8646 263.59375 321.39584Q263.76562 321.03647 263.76562 320.34897L263.76562 319.95834ZM270.85938 320.8021L271.89062 320.94272Q271.71875 322.00522 271.01562 322.6146Q270.3125 323.22397 269.29688 323.22397Q268.01562 323.22397 267.23438 322.39584Q266.46875 321.5521 266.46875 319.9896Q266.46875 318.9896 266.79688 318.2396Q267.14062 317.47397 267.8125 317.09897Q268.5 316.72397 269.3125 316.72397Q270.3125 316.72397 270.95312 317.2396Q271.60938 317.7396 271.79688 318.69272L270.76562 318.84897Q270.625 318.22397 270.25 317.91147Q269.875 317.58334 269.34375 317.58334Q268.54688 317.58334 268.04688 318.16147Q267.54688 318.72397 267.54688 319.95834Q267.54688 321.22397 268.03125 321.78647Q268.51562 322.34897 269.28125 322.34897Q269.90625 322.34897 270.3125 321.97397Q270.73438 321.59897 270.85938 320.8021ZM275.09375 322.14584L275.25 323.06772Q274.79688 323.16147 274.45312 323.16147Q273.875 323.16147 273.5625 322.9896Q273.25 322.8021 273.10938 322.50522Q272.98438 322.20834 272.98438 321.25522L272.98438 317.6771L272.21875 317.6771L272.21875 316.8646L272.98438 316.8646L272.98438 315.31772L274.03125 314.69272L274.03125 316.8646L275.09375 316.8646L275.09375 317.6771L274.03125 317.6771L274.03125 321.31772Q274.03125 321.77084 274.07812 321.89584Q274.14062 322.02084 274.26562 322.09897Q274.39062 322.1771 274.625 322.1771Q274.8125 322.1771 275.09375 322.14584ZM282.85938 320.8021L283.89062 320.94272Q283.71875 322.00522 283.01562 322.6146Q282.3125 323.22397 281.29688 323.22397Q280.01562 323.22397 279.23438 322.39584Q278.46875 321.5521 278.46875 319.9896Q278.46875 318.9896 278.79688 318.2396Q279.14062 317.47397 279.8125 317.09897Q280.5 316.72397 281.3125 316.72397Q282.3125 316.72397 282.95312 317.2396Q283.60938 317.7396 283.79688 318.69272L282.76562 318.84897Q282.625 318.22397 282.25 317.91147Q281.875 317.58334 281.34375 317.58334Q280.54688 317.58334 280.04688 318.16147Q279.54688 318.72397 279.54688 319.95834Q279.54688 321.22397 280.03125 321.78647Q280.51562 322.34897 281.28125 322.34897Q281.90625 322.34897 282.3125 321.97397Q282.73438 321.59897 282.85938 320.8021ZM284.40625 319.97397Q284.40625 318.2396 285.35938 317.41147Q286.15625 316.72397 287.3125 316.72397Q288.59375 316.72397 289.40625 317.56772Q290.23438 318.39584 290.23438 319.88022Q290.23438 321.08334 289.875 321.77084Q289.51562 322.45834 288.8125 322.84897Q288.125 323.22397 287.3125 323.22397Q286.01562 323.22397 285.20312 322.39584Q284.40625 321.5521 284.40625 319.97397ZM285.48438 319.97397Q285.48438 321.16147 286.0 321.75522Q286.53125 322.34897 287.3125 322.34897Q288.10938 322.34897 288.625 321.75522Q289.14062 321.16147 289.14062 319.94272Q289.14062 318.78647 288.60938 318.19272Q288.09375 317.59897 287.3125 317.59897Q286.53125 317.59897 286.0 318.19272Q285.48438 318.77084 285.48438 319.97397ZM291.79688 323.08334L291.79688 316.8646L292.73438 316.8646L292.73438 317.7396Q293.03125 317.27084 293.51562 317.00522Q294.0 316.72397 294.625 316.72397Q295.3125 316.72397 295.75 317.00522Q296.20312 317.28647 296.375 317.8021Q297.125 316.72397 298.29688 316.72397Q299.23438 316.72397 299.71875 317.2396Q300.21875 317.7396 300.21875 318.81772L300.21875 323.08334L299.17188 323.08334L299.17188 319.16147Q299.17188 318.53647 299.0625 318.25522Q298.96875 317.97397 298.70312 317.8021Q298.4375 317.63022 298.0625 317.63022Q297.40625 317.63022 296.96875 318.06772Q296.54688 318.50522 296.54688 319.47397L296.54688 323.08334L295.48438 323.08334L295.48438 319.03647Q295.48438 318.33334 295.21875 317.9896Q294.96875 317.63022 294.39062 317.63022Q293.9375 317.63022 293.5625 317.8646Q293.1875 318.09897 293.01562 318.5521Q292.84375 319.00522 292.84375 319.84897L292.84375 323.08334L291.79688 323.08334ZM302.79688 325.47397L302.79688 316.8646L303.75 316.8646L303.75 317.66147Q304.09375 317.19272 304.51562 316.95834Q304.95312 316.72397 305.5625 316.72397Q306.35938 316.72397 306.96875 317.13022Q307.57812 317.53647 307.875 318.28647Q308.1875 319.03647 308.1875 319.9271Q308.1875 320.88022 307.84375 321.64584Q307.51562 322.41147 306.85938 322.81772Q306.20312 323.22397 305.48438 323.22397Q304.95312 323.22397 304.53125 323.00522Q304.10938 322.77084 303.84375 322.44272L303.84375 325.47397L302.79688 325.47397ZM303.75 320.00522Q303.75 321.20834 304.23438 321.78647Q304.71875 322.34897 305.40625 322.34897Q306.10938 322.34897 306.60938 321.75522Q307.10938 321.16147 307.10938 319.91147Q307.10938 318.72397 306.625 318.14584Q306.14062 317.5521 305.45312 317.5521Q304.78125 317.5521 304.26562 318.1771Q303.75 318.8021 303.75 320.00522ZM309.40625 319.97397Q309.40625 318.2396 310.35938 317.41147Q311.15625 316.72397 312.3125 316.72397Q313.59375 316.72397 314.40625 317.56772Q315.23438 318.39584 315.23438 319.88022Q315.23438 321.08334 314.875 321.77084Q314.51562 322.45834 313.8125 322.84897Q313.125 323.22397 312.3125 323.22397Q311.01562 323.22397 310.20312 322.39584Q309.40625 321.5521 309.40625 319.97397ZM310.48438 319.97397Q310.48438 321.16147 311.0 321.75522Q311.53125 322.34897 312.3125 322.34897Q313.10938 322.34897 313.625 321.75522Q314.14062 321.16147 314.14062 319.94272Q314.14062 318.78647 313.60938 318.19272Q313.09375 317.59897 312.3125 317.59897Q311.53125 317.59897 311.0 318.19272Q310.48438 318.77084 310.48438 319.97397ZM316.79688 323.08334L316.79688 316.8646L317.73438 316.8646L317.73438 317.7396Q318.42188 316.72397 319.71875 316.72397Q320.28125 316.72397 320.75 316.9271Q321.23438 317.13022 321.46875 317.45834Q321.70312 317.78647 321.79688 318.22397Q321.84375 318.52084 321.84375 319.25522L321.84375 323.08334L320.79688 323.08334L320.79688 319.3021Q320.79688 318.64584 320.67188 318.33334Q320.54688 318.02084 320.23438 317.83334Q319.92188 317.63022 319.5 317.63022Q318.82812 317.63022 318.32812 318.06772Q317.84375 318.4896 317.84375 319.6771L317.84375 323.08334L316.79688 323.08334ZM328.04688 321.08334L329.14062 321.20834Q328.89062 322.16147 328.1875 322.69272Q327.48438 323.22397 326.40625 323.22397Q325.04688 323.22397 324.23438 322.38022Q323.4375 321.53647 323.4375 320.02084Q323.4375 318.45834 324.25 317.59897Q325.0625 316.72397 326.34375 316.72397Q327.59375 316.72397 328.375 317.56772Q329.17188 318.41147 329.17188 319.95834Q329.17188 320.0521 329.17188 320.2396L324.53125 320.2396Q324.59375 321.27084 325.10938 321.81772Q325.625 322.34897 326.40625 322.34897Q326.98438 322.34897 327.39062 322.0521Q327.8125 321.7396 328.04688 321.08334ZM324.59375 319.38022L328.0625 319.38022Q328.0 318.58334 327.67188 318.19272Q327.15625 317.58334 326.35938 317.58334Q325.625 317.58334 325.125 318.06772Q324.64062 318.5521 324.59375 319.38022ZM330.79688 323.08334L330.79688 316.8646L331.73438 316.8646L331.73438 317.7396Q332.42188 316.72397 333.71875 316.72397Q334.28125 316.72397 334.75 316.9271Q335.23438 317.13022 335.46875 317.45834Q335.70312 317.78647 335.79688 318.22397Q335.84375 318.52084 335.84375 319.25522L335.84375 323.08334L334.79688 323.08334L334.79688 319.3021Q334.79688 318.64584 334.67188 318.33334Q334.54688 318.02084 334.23438 317.83334Q333.92188 317.63022 333.5 317.63022Q332.82812 317.63022 332.32812 318.06772Q331.84375 318.4896 331.84375 319.6771L331.84375 323.08334L330.79688 323.08334ZM340.09375 322.14584L340.25 323.06772Q339.79688 323.16147 339.45312 323.16147Q338.875 323.16147 338.5625 322.9896Q338.25 322.8021 338.10938 322.50522Q337.98438 322.20834 337.98438 321.25522L337.98438 317.6771L337.21875 317.6771L337.21875 316.8646L337.98438 316.8646L337.98438 315.31772L339.03125 314.69272L339.03125 316.8646L340.09375 316.8646L340.09375 317.6771L339.03125 317.6771L339.03125 321.31772Q339.03125 321.77084 339.07812 321.89584Q339.14062 322.02084 339.26562 322.09897Q339.39062 322.1771 339.625 322.1771Q339.8125 322.1771 340.09375 322.14584ZM346.09375 322.14584L346.25 323.06772Q345.79688 323.16147 345.45312 323.16147Q344.875 323.16147 344.5625 322.9896Q344.25 322.8021 344.10938 322.50522Q343.98438 322.20834 343.98438 321.25522L343.98438 317.6771L343.21875 317.6771L343.21875 316.8646L343.98438 316.8646L343.98438 315.31772L345.03125 314.69272L345.03125 316.8646L346.09375 316.8646L346.09375 317.6771L345.03125 317.6771L345.03125 321.31772Q345.03125 321.77084 345.07812 321.89584Q345.14062 322.02084 345.26562 322.09897Q345.39062 322.1771 345.625 322.1771Q345.8125 322.1771 346.09375 322.14584ZM346.78125 323.08334L346.78125 316.8646L347.73438 316.8646L347.73438 317.8021Q348.09375 317.14584 348.39062 316.94272Q348.70312 316.72397 349.07812 316.72397Q349.60938 316.72397 350.15625 317.0521L349.79688 318.03647Q349.40625 317.8021 349.03125 317.8021Q348.67188 317.8021 348.39062 318.02084Q348.125 318.22397 348.01562 318.59897Q347.82812 319.16147 347.82812 319.81772L347.82812 323.08334L346.78125 323.08334ZM355.04688 321.08334L356.14062 321.20834Q355.89062 322.16147 355.1875 322.69272Q354.48438 323.22397 353.40625 323.22397Q352.04688 323.22397 351.23438 322.38022Q350.4375 321.53647 350.4375 320.02084Q350.4375 318.45834 351.25 317.59897Q352.0625 316.72397 353.34375 316.72397Q354.59375 316.72397 355.375 317.56772Q356.17188 318.41147 356.17188 319.95834Q356.17188 320.0521 356.17188 320.2396L351.53125 320.2396Q351.59375 321.27084 352.10938 321.81772Q352.625 322.34897 353.40625 322.34897Q353.98438 322.34897 354.39062 322.0521Q354.8125 321.7396 355.04688 321.08334ZM351.59375 319.38022L355.0625 319.38022Q355.0 318.58334 354.67188 318.19272Q354.15625 317.58334 353.35938 317.58334Q352.625 317.58334 352.125 318.06772Q351.64062 318.5521 351.59375 319.38022ZM362.04688 321.08334L363.14062 321.20834Q362.89062 322.16147 362.1875 322.69272Q361.48438 323.22397 360.40625 323.22397Q359.04688 323.22397 358.23438 322.38022Q357.4375 321.53647 357.4375 320.02084Q357.4375 318.45834 358.25 317.59897Q359.0625 316.72397 360.34375 316.72397Q361.59375 316.72397 362.375 317.56772Q363.17188 318.41147 363.17188 319.95834Q363.17188 320.0521 363.17188 320.2396L358.53125 320.2396Q358.59375 321.27084 359.10938 321.81772Q359.625 322.34897 360.40625 322.34897Q360.98438 322.34897 361.39062 322.0521Q361.8125 321.7396 362.04688 321.08334ZM358.59375 319.38022L362.0625 319.38022Q362.0 318.58334 361.67188 318.19272Q361.15625 317.58334 360.35938 317.58334Q359.625 317.58334 359.125 318.06772Q358.64062 318.5521 358.59375 319.38022ZM371.82812 323.08334L371.82812 322.3021Q371.23438 323.22397 370.09375 323.22397Q369.34375 323.22397 368.71875 322.81772Q368.09375 322.39584 367.75 321.66147Q367.40625 320.9271 367.40625 319.97397Q367.40625 319.0521 367.71875 318.28647Q368.03125 317.52084 368.65625 317.13022Q369.28125 316.72397 370.04688 316.72397Q370.60938 316.72397 371.04688 316.95834Q371.48438 317.19272 371.76562 317.56772L371.76562 314.4896L372.8125 314.4896L372.8125 323.08334L371.82812 323.08334ZM368.5 319.97397Q368.5 321.1771 369.0 321.77084Q369.5 322.34897 370.1875 322.34897Q370.875 322.34897 371.35938 321.78647Q371.84375 321.22397 371.84375 320.06772Q371.84375 318.78647 371.34375 318.19272Q370.85938 317.59897 370.14062 317.59897Q369.4375 317.59897 368.96875 318.1771Q368.5 318.7396 368.5 319.97397ZM379.04688 321.08334L380.14062 321.20834Q379.89062 322.16147 379.1875 322.69272Q378.48438 323.22397 377.40625 323.22397Q376.04688 323.22397 375.23438 322.38022Q374.4375 321.53647 374.4375 320.02084Q374.4375 318.45834 375.25 317.59897Q376.0625 316.72397 377.34375 316.72397Q378.59375 316.72397 379.375 317.56772Q380.17188 318.41147 380.17188 319.95834Q380.17188 320.0521 380.17188 320.2396L375.53125 320.2396Q375.59375 321.27084 376.10938 321.81772Q376.625 322.34897 377.40625 322.34897Q377.98438 322.34897 378.39062 322.0521Q378.8125 321.7396 379.04688 321.08334ZM375.59375 319.38022L379.0625 319.38022Q379.0 318.58334 378.67188 318.19272Q378.15625 317.58334 377.35938 317.58334Q376.625 317.58334 376.125 318.06772Q375.64062 318.5521 375.59375 319.38022ZM381.79688 325.47397L381.79688 316.8646L382.75 316.8646L382.75 317.66147Q383.09375 317.19272 383.51562 316.95834Q383.95312 316.72397 384.5625 316.72397Q385.35938 316.72397 385.96875 317.13022Q386.57812 317.53647 386.875 318.28647Q387.1875 319.03647 387.1875 319.9271Q387.1875 320.88022 386.84375 321.64584Q386.51562 322.41147 385.85938 322.81772Q385.20312 323.22397 384.48438 323.22397Q383.95312 323.22397 383.53125 323.00522Q383.10938 322.77084 382.84375 322.44272L382.84375 325.47397L381.79688 325.47397ZM382.75 320.00522Q382.75 321.20834 383.23438 321.78647Q383.71875 322.34897 384.40625 322.34897Q385.10938 322.34897 385.60938 321.75522Q386.10938 321.16147 386.10938 319.91147Q386.10938 318.72397 385.625 318.14584Q385.14062 317.5521 384.45312 317.5521Q383.78125 317.5521 383.26562 318.1771Q382.75 318.8021 382.75 320.00522ZM391.09375 322.14584L391.25 323.06772Q390.79688 323.16147 390.45312 323.16147Q389.875 323.16147 389.5625 322.9896Q389.25 322.8021 389.10938 322.50522Q388.98438 322.20834 388.98438 321.25522L388.98438 317.6771L388.21875 317.6771L388.21875 316.8646L388.98438 316.8646L388.98438 315.31772L390.03125 314.69272L390.03125 316.8646L391.09375 316.8646L391.09375 317.6771L390.03125 317.6771L390.03125 321.31772Q390.03125 321.77084 390.07812 321.89584Q390.14062 322.02084 390.26562 322.09897Q390.39062 322.1771 390.625 322.1771Q390.8125 322.1771 391.09375 322.14584ZM391.79688 323.08334L391.79688 314.4896L392.84375 314.4896L392.84375 317.56772Q393.57812 316.72397 394.70312 316.72397Q395.40625 316.72397 395.90625 317.00522Q396.42188 317.27084 396.64062 317.75522Q396.85938 318.22397 396.85938 319.14584L396.85938 323.08334L395.8125 323.08334L395.8125 319.14584Q395.8125 318.34897 395.46875 317.9896Q395.125 317.63022 394.5 317.63022Q394.03125 317.63022 393.60938 317.88022Q393.20312 318.1146 393.01562 318.53647Q392.84375 318.94272 392.84375 319.6771L392.84375 323.08334L391.79688 323.08334Z" fill-rule="nonzero"/><path fill="#000000" d="M37.01875 258.1265L35.971874 258.1265L35.971874 251.40775Q35.58125 251.76712 34.95625 252.14212Q34.346874 252.5015 33.8625 252.67337L33.8625 251.65775Q34.7375 251.23587 35.39375 250.65775Q36.065624 250.064 36.346874 249.5015L37.01875 249.5015L37.01875 258.1265ZM40.05 253.89212Q40.05 252.36087 40.3625 251.439Q40.675 250.5015 41.284374 250.0015Q41.909374 249.5015 42.846874 249.5015Q43.534374 249.5015 44.05 249.78275Q44.58125 250.064 44.925 250.59525Q45.26875 251.11087 45.45625 251.86087Q45.64375 252.61087 45.64375 253.89212Q45.64375 255.40775 45.33125 256.32962Q45.034374 257.2515 44.409374 257.76712Q43.8 258.26712 42.846874 258.26712Q41.6125 258.26712 40.89375 257.3765Q40.05 256.314 40.05 253.89212ZM41.128124 253.89212Q41.128124 256.0015 41.628124 256.70462Q42.128124 257.40775 42.846874 257.40775Q43.58125 257.40775 44.065624 256.70462Q44.565624 256.0015 44.565624 253.89212Q44.565624 251.76712 44.065624 251.07962Q43.58125 250.3765 42.83125 250.3765Q42.1125 250.3765 41.675 250.98587Q41.128124 251.76712 41.128124 253.89212ZM47.05 253.89212Q47.05 252.36087 47.3625 251.439Q47.675 250.5015 48.284374 250.0015Q48.909374 249.5015 49.846874 249.5015Q50.534374 249.5015 51.05 249.78275Q51.58125 250.064 51.925 250.59525Q52.26875 251.11087 52.45625 251.86087Q52.64375 252.61087 52.64375 253.89212Q52.64375 255.40775 52.33125 256.32962Q52.034374 257.2515 51.409374 257.76712Q50.8 258.26712 49.846874 258.26712Q48.6125 258.26712 47.89375 257.3765Q47.05 256.314 47.05 253.89212ZM48.128124 253.89212Q48.128124 256.0015 48.628124 256.70462Q49.128124 257.40775 49.846874 257.40775Q50.58125 257.40775 51.065624 256.70462Q51.565624 256.0015 51.565624 253.89212Q51.565624 251.76712 51.065624 251.07962Q50.58125 250.3765 49.83125 250.3765Q49.1125 250.3765 48.675 250.98587Q48.128124 251.76712 48.128124 253.89212Z" fill-rule="nonzero"/><path fill="#000000" d="M33.05 208.17538L34.159374 208.08163Q34.284374 208.89413 34.721874 209.30038Q35.175 209.70663 35.815624 209.70663Q36.565624 209.70663 37.096874 209.12851Q37.628124 208.55038 37.628124 207.61288Q37.628124 206.70663 37.1125 206.19101Q36.6125 205.65976 35.784374 205.65976Q35.284374 205.65976 34.8625 205.89413Q34.45625 206.12851 34.221874 206.48788L33.2375 206.36288L34.065624 201.95663L38.346874 201.95663L38.346874 202.95663L34.909374 202.95663L34.45625 205.26913Q35.221874 204.72226 36.065624 204.72226Q37.190624 204.72226 37.95625 205.50351Q38.7375 206.28476 38.7375 207.51913Q38.7375 208.67538 38.065624 209.53476Q37.2375 210.56601 35.815624 210.56601Q34.64375 210.56601 33.89375 209.90976Q33.159374 209.25351 33.05 208.17538ZM40.05 206.19101Q40.05 204.65976 40.3625 203.73788Q40.675 202.80038 41.284374 202.30038Q41.909374 201.80038 42.846874 201.80038Q43.534374 201.80038 44.05 202.08163Q44.58125 202.36288 44.925 202.89413Q45.26875 203.40976 45.45625 204.15976Q45.64375 204.90976 45.64375 206.19101Q45.64375 207.70663 45.33125 208.62851Q45.034374 209.55038 44.409374 210.06601Q43.8 210.56601 42.846874 210.56601Q41.6125 210.56601 40.89375 209.67538Q40.05 208.61288 40.05 206.19101ZM41.128124 206.19101Q41.128124 208.30038 41.628124 209.00351Q42.128124 209.70663 42.846874 209.70663Q43.58125 209.70663 44.065624 209.00351Q44.565624 208.30038 44.565624 206.19101Q44.565624 204.06601 44.065624 203.37851Q43.58125 202.67538 42.83125 202.67538Q42.1125 202.67538 41.675 203.28476Q41.128124 204.06601 41.128124 206.19101ZM47.05 206.19101Q47.05 204.65976 47.3625 203.73788Q47.675 202.80038 48.284374 202.30038Q48.909374 201.80038 49.846874 201.80038Q50.534374 201.80038 51.05 202.08163Q51.58125 202.36288 51.925 202.89413Q52.26875 203.40976 52.45625 204.15976Q52.64375 204.90976 52.64375 206.19101Q52.64375 207.70663 52.33125 208.62851Q52.034374 209.55038 51.409374 210.06601Q50.8 210.56601 49.846874 210.56601Q48.6125 210.56601 47.89375 209.67538Q47.05 208.61288 47.05 206.19101ZM48.128124 206.19101Q48.128124 208.30038 48.628124 209.00351Q49.128124 209.70663 49.846874 209.70663Q50.58125 209.70663 51.065624 209.00351Q51.565624 208.30038 51.565624 206.19101Q51.565624 204.06601 51.065624 203.37851Q50.58125 202.67538 49.83125 202.67538Q49.1125 202.67538 48.675 203.28476Q48.128124 204.06601 48.128124 206.19101Z" fill-rule="nonzero"/><path fill="#000000" d="M30.01875 189.88164L28.971874 189.88164L28.971874 183.16289Q28.58125 183.52226 27.95625 183.89726Q27.346874 184.25664 26.8625 184.42851L26.8625 183.41289Q27.7375 182.99101 28.39375 182.41289Q29.065624 181.81914 29.346874 181.25664L30.01875 181.25664L30.01875 189.88164ZM33.05 185.64726Q33.05 184.11601 33.3625 183.19414Q33.675 182.25664 34.284374 181.75664Q34.909374 181.25664 35.846874 181.25664Q36.534374 181.25664 37.05 181.53789Q37.58125 181.81914 37.925 182.35039Q38.26875 182.86601 38.45625 183.61601Q38.64375 184.36601 38.64375 185.64726Q38.64375 187.16289 38.33125 188.08476Q38.034374 189.00664 37.409374 189.52226Q36.8 190.02226 35.846874 190.02226Q34.6125 190.02226 33.89375 189.13164Q33.05 188.06914 33.05 185.64726ZM34.128124 185.64726Q34.128124 187.75664 34.628124 188.45976Q35.128124 189.16289 35.846874 189.16289Q36.58125 189.16289 37.065624 188.45976Q37.565624 187.75664 37.565624 185.64726Q37.565624 183.52226 37.065624 182.83476Q36.58125 182.13164 35.83125 182.13164Q35.1125 182.13164 34.675 182.74101Q34.128124 183.52226 34.128124 185.64726ZM40.05 185.64726Q40.05 184.11601 40.3625 183.19414Q40.675 182.25664 41.284374 181.75664Q41.909374 181.25664 42.846874 181.25664Q43.534374 181.25664 44.05 181.53789Q44.58125 181.81914 44.925 182.35039Q45.26875 182.86601 45.45625 183.61601Q45.64375 184.36601 45.64375 185.64726Q45.64375 187.16289 45.33125 188.08476Q45.034374 189.00664 44.409374 189.52226Q43.8 190.02226 42.846874 190.02226Q41.6125 190.02226 40.89375 189.13164Q40.05 188.06914 40.05 185.64726ZM41.128124 185.64726Q41.128124 187.75664 41.628124 188.45976Q42.128124 189.16289 42.846874 189.16289Q43.58125 189.16289 44.065624 188.45976Q44.565624 187.75664 44.565624 185.64726Q44.565624 183.52226 44.065624 182.83476Q43.58125 182.13164 42.83125 182.13164Q42.1125 182.13164 41.675 182.74101Q41.128124 183.52226 41.128124 185.64726ZM47.05 185.64726Q47.05 184.11601 47.3625 183.19414Q47.675 182.25664 48.284374 181.75664Q48.909374 181.25664 49.846874 181.25664Q50.534374 181.25664 51.05 181.53789Q51.58125 181.81914 51.925 182.35039Q52.26875 182.86601 52.45625 183.61601Q52.64375 184.36601 52.64375 185.64726Q52.64375 187.16289 52.33125 188.08476Q52.034374 189.00664 51.409374 189.52226Q50.8 190.02226 49.846874 190.02226Q48.6125 190.02226 47.89375 189.13164Q47.05 188.06914 47.05 185.64726ZM48.128124 185.64726Q48.128124 187.75664 48.628124 188.45976Q49.128124 189.16289 49.846874 189.16289Q50.58125 189.16289 51.065624 188.45976Q51.565624 187.75664 51.565624 185.64726Q51.565624 183.52226 51.065624 182.83476Q50.58125 182.13164 49.83125 182.13164Q49.1125 182.13164 48.675 182.74101Q48.128124 183.52226 48.128124 185.64726Z" fill-rule="nonzero"/><path fill="#000000" d="M26.05 139.93053L27.159374 139.83678Q27.284374 140.64928 27.721874 141.05553Q28.175 141.46178 28.815624 141.46178Q29.565624 141.46178 30.096874 140.88365Q30.628124 140.30553 30.628124 139.36803Q30.628124 138.46178 30.1125 137.94615Q29.6125 137.4149 28.784374 137.4149Q28.284374 137.4149 27.8625 137.64928Q27.45625 137.88365 27.221874 138.24303L26.2375 138.11803L27.065624 133.71178L31.346874 133.71178L31.346874 134.71178L27.909374 134.71178L27.45625 137.02428Q28.221874 136.4774 29.065624 136.4774Q30.190624 136.4774 30.95625 137.25865Q31.7375 138.0399 31.7375 139.27428Q31.7375 140.43053 31.065624 141.2899Q30.2375 142.32115 28.815624 142.32115Q27.64375 142.32115 26.89375 141.6649Q26.159374 141.00865 26.05 139.93053ZM33.05 137.94615Q33.05 136.4149 33.3625 135.49303Q33.675 134.55553 34.284374 134.05553Q34.909374 133.55553 35.846874 133.55553Q36.534374 133.55553 37.05 133.83678Q37.58125 134.11803 37.925 134.64928Q38.26875 135.1649 38.45625 135.9149Q38.64375 136.6649 38.64375 137.94615Q38.64375 139.46178 38.33125 140.38365Q38.034374 141.30553 37.409374 141.82115Q36.8 142.32115 35.846874 142.32115Q34.6125 142.32115 33.89375 141.43053Q33.05 140.36803 33.05 137.94615ZM34.128124 137.94615Q34.128124 140.05553 34.628124 140.75865Q35.128124 141.46178 35.846874 141.46178Q36.58125 141.46178 37.065624 140.75865Q37.565624 140.05553 37.565624 137.94615Q37.565624 135.82115 37.065624 135.13365Q36.58125 134.43053 35.83125 134.43053Q35.1125 134.43053 34.675 135.0399Q34.128124 135.82115 34.128124 137.94615ZM40.05 137.94615Q40.05 136.4149 40.3625 135.49303Q40.675 134.55553 41.284374 134.05553Q41.909374 133.55553 42.846874 133.55553Q43.534374 133.55553 44.05 133.83678Q44.58125 134.11803 44.925 134.64928Q45.26875 135.1649 45.45625 135.9149Q45.64375 136.6649 45.64375 137.94615Q45.64375 139.46178 45.33125 140.38365Q45.034374 141.30553 44.409374 141.82115Q43.8 142.32115 42.846874 142.32115Q41.6125 142.32115 40.89375 141.43053Q40.05 140.36803 40.05 137.94615ZM41.128124 137.94615Q41.128124 140.05553 41.628124 140.75865Q42.128124 141.46178 42.846874 141.46178Q43.58125 141.46178 44.065624 140.75865Q44.565624 140.05553 44.565624 137.94615Q44.565624 135.82115 44.065624 135.13365Q43.58125 134.43053 42.83125 134.43053Q42.1125 134.43053 41.675 135.0399Q41.128124 135.82115 41.128124 137.94615ZM47.05 137.94615Q47.05 136.4149 47.3625 135.49303Q47.675 134.55553 48.284374 134.05553Q48.909374 133.55553 49.846874 133.55553Q50.534374 133.55553 51.05 133.83678Q51.58125 134.11803 51.925 134.64928Q52.26875 135.1649 52.45625 135.9149Q52.64375 136.6649 52.64375 137.94615Q52.64375 139.46178 52.33125 140.38365Q52.034374 141.30553 51.409374 141.82115Q50.8 142.32115 49.846874 142.32115Q48.6125 142.32115 47.89375 141.43053Q47.05 140.36803 47.05 137.94615ZM48.128124 137.94615Q48.128124 140.05553 48.628124 140.75865Q49.128124 141.46178 49.846874 141.46178Q50.58125 141.46178 51.065624 140.75865Q51.565624 140.05553 51.565624 137.94615Q51.565624 135.82115 51.065624 135.13365Q50.58125 134.43053 49.83125 134.43053Q49.1125 134.43053 48.675 135.0399Q48.128124 135.82115 48.128124 137.94615Z" fill-rule="nonzero"/><path fill="#000000" d="M23.01875 121.63677L21.971874 121.63677L21.971874 114.91802Q21.58125 115.2774 20.95625 115.6524Q20.346874 116.01177 19.8625 116.18365L19.8625 115.16802Q20.7375 114.74615 21.39375 114.16802Q22.065624 113.57427 22.346874 113.01177L23.01875 113.01177L23.01875 121.63677ZM26.05 117.4024Q26.05 115.87115 26.3625 114.94927Q26.675 114.01177 27.284374 113.51177Q27.909374 113.01177 28.846874 113.01177Q29.534374 113.01177 30.05 113.29302Q30.58125 113.57427 30.925 114.10552Q31.26875 114.62115 31.45625 115.37115Q31.64375 116.12115 31.64375 117.4024Q31.64375 118.91802 31.33125 119.8399Q31.034374 120.76177 30.409374 121.2774Q29.8 121.7774 28.846874 121.7774Q27.6125 121.7774 26.89375 120.88677Q26.05 119.82427 26.05 117.4024ZM27.128124 117.4024Q27.128124 119.51177 27.628124 120.2149Q28.128124 120.91802 28.846874 120.91802Q29.58125 120.91802 30.065624 120.2149Q30.565624 119.51177 30.565624 117.4024Q30.565624 115.2774 30.065624 114.5899Q29.58125 113.88677 28.83125 113.88677Q28.1125 113.88677 27.675 114.49615Q27.128124 115.2774 27.128124 117.4024ZM33.05 117.4024Q33.05 115.87115 33.3625 114.94927Q33.675 114.01177 34.284374 113.51177Q34.909374 113.01177 35.846874 113.01177Q36.534374 113.01177 37.05 113.29302Q37.58125 113.57427 37.925 114.10552Q38.26875 114.62115 38.45625 115.37115Q38.64375 116.12115 38.64375 117.4024Q38.64375 118.91802 38.33125 119.8399Q38.034374 120.76177 37.409374 121.2774Q36.8 121.7774 35.846874 121.7774Q34.6125 121.7774 33.89375 120.88677Q33.05 119.82427 33.05 117.4024ZM34.128124 117.4024Q34.128124 119.51177 34.628124 120.2149Q35.128124 120.91802 35.846874 120.91802Q36.58125 120.91802 37.065624 120.2149Q37.565624 119.51177 37.565624 117.4024Q37.565624 115.2774 37.065624 114.5899Q36.58125 113.88677 35.83125 113.88677Q35.1125 113.88677 34.675 114.49615Q34.128124 115.2774 34.128124 117.4024ZM40.05 117.4024Q40.05 115.87115 40.3625 114.94927Q40.675 114.01177 41.284374 113.51177Q41.909374 113.01177 42.846874 113.01177Q43.534374 113.01177 44.05 113.29302Q44.58125 113.57427 44.925 114.10552Q45.26875 114.62115 45.45625 115.37115Q45.64375 116.12115 45.64375 117.4024Q45.64375 118.91802 45.33125 119.8399Q45.034374 120.76177 44.409374 121.2774Q43.8 121.7774 42.846874 121.7774Q41.6125 121.7774 40.89375 120.88677Q40.05 119.82427 40.05 117.4024ZM41.128124 117.4024Q41.128124 119.51177 41.628124 120.2149Q42.128124 120.91802 42.846874 120.91802Q43.58125 120.91802 44.065624 120.2149Q44.565624 119.51177 44.565624 117.4024Q44.565624 115.2774 44.065624 114.5899Q43.58125 113.88677 42.83125 113.88677Q42.1125 113.88677 41.675 114.49615Q41.128124 115.2774 41.128124 117.4024ZM47.05 117.4024Q47.05 115.87115 47.3625 114.94927Q47.675 114.01177 48.284374 113.51177Q48.909374 113.01177 49.846874 113.01177Q50.534374 113.01177 51.05 113.29302Q51.58125 113.57427 51.925 114.10552Q52.26875 114.62115 52.45625 115.37115Q52.64375 116.12115 52.64375 117.4024Q52.64375 118.91802 52.33125 119.8399Q52.034374 120.76177 51.409374 121.2774Q50.8 121.7774 49.846874 121.7774Q48.6125 121.7774 47.89375 120.88677Q47.05 119.82427 47.05 117.4024ZM48.128124 117.4024Q48.128124 119.51177 48.628124 120.2149Q49.128124 120.91802 49.846874 120.91802Q50.58125 120.91802 51.065624 120.2149Q51.565624 119.51177 51.565624 117.4024Q51.565624 115.2774 51.065624 114.5899Q50.58125 113.88677 49.83125 113.88677Q49.1125 113.88677 48.675 114.49615Q48.128124 115.2774 48.128124 117.4024Z" fill-rule="nonzero"/><path fill="#000000" d="M19.05 71.68566L20.159374 71.59191Q20.284374 72.40441 20.721874 72.81066Q21.175 73.21691 21.815624 73.21691Q22.565624 73.21691 23.096874 72.63879Q23.628124 72.06066 23.628124 71.12316Q23.628124 70.21691 23.1125 69.70129Q22.6125 69.17004 21.784374 69.17004Q21.284374 69.17004 20.8625 69.40441Q20.45625 69.63879 20.221874 69.99816L19.2375 69.87316L20.065624 65.46691L24.346874 65.46691L24.346874 66.46691L20.909374 66.46691L20.45625 68.77941Q21.221874 68.23254 22.065624 68.23254Q23.190624 68.23254 23.95625 69.01379Q24.7375 69.79504 24.7375 71.02941Q24.7375 72.18566 24.065624 73.04504Q23.2375 74.07629 21.815624 74.07629Q20.64375 74.07629 19.89375 73.42004Q19.159374 72.76379 19.05 71.68566ZM26.05 69.70129Q26.05 68.17004 26.3625 67.24816Q26.675 66.31066 27.284374 65.81066Q27.909374 65.31066 28.846874 65.31066Q29.534374 65.31066 30.05 65.59191Q30.58125 65.87316 30.925 66.40441Q31.26875 66.92004 31.45625 67.67004Q31.64375 68.42004 31.64375 69.70129Q31.64375 71.21691 31.33125 72.13879Q31.034374 73.06066 30.409374 73.57629Q29.8 74.07629 28.846874 74.07629Q27.6125 74.07629 26.89375 73.18566Q26.05 72.12316 26.05 69.70129ZM27.128124 69.70129Q27.128124 71.81066 27.628124 72.51379Q28.128124 73.21691 28.846874 73.21691Q29.58125 73.21691 30.065624 72.51379Q30.565624 71.81066 30.565624 69.70129Q30.565624 67.57629 30.065624 66.88879Q29.58125 66.18566 28.83125 66.18566Q28.1125 66.18566 27.675 66.79504Q27.128124 67.57629 27.128124 69.70129ZM33.05 69.70129Q33.05 68.17004 33.3625 67.24816Q33.675 66.31066 34.284374 65.81066Q34.909374 65.31066 35.846874 65.31066Q36.534374 65.31066 37.05 65.59191Q37.58125 65.87316 37.925 66.40441Q38.26875 66.92004 38.45625 67.67004Q38.64375 68.42004 38.64375 69.70129Q38.64375 71.21691 38.33125 72.13879Q38.034374 73.06066 37.409374 73.57629Q36.8 74.07629 35.846874 74.07629Q34.6125 74.07629 33.89375 73.18566Q33.05 72.12316 33.05 69.70129ZM34.128124 69.70129Q34.128124 71.81066 34.628124 72.51379Q35.128124 73.21691 35.846874 73.21691Q36.58125 73.21691 37.065624 72.51379Q37.565624 71.81066 37.565624 69.70129Q37.565624 67.57629 37.065624 66.88879Q36.58125 66.18566 35.83125 66.18566Q35.1125 66.18566 34.675 66.79504Q34.128124 67.57629 34.128124 69.70129ZM40.05 69.70129Q40.05 68.17004 40.3625 67.24816Q40.675 66.31066 41.284374 65.81066Q41.909374 65.31066 42.846874 65.31066Q43.534374 65.31066 44.05 65.59191Q44.58125 65.87316 44.925 66.40441Q45.26875 66.92004 45.45625 67.67004Q45.64375 68.42004 45.64375 69.70129Q45.64375 71.21691 45.33125 72.13879Q45.034374 73.06066 44.409374 73.57629Q43.8 74.07629 42.846874 74.07629Q41.6125 74.07629 40.89375 73.18566Q40.05 72.12316 40.05 69.70129ZM41.128124 69.70129Q41.128124 71.81066 41.628124 72.51379Q42.128124 73.21691 42.846874 73.21691Q43.58125 73.21691 44.065624 72.51379Q44.565624 71.81066 44.565624 69.70129Q44.565624 67.57629 44.065624 66.88879Q43.58125 66.18566 42.83125 66.18566Q42.1125 66.18566 41.675 66.79504Q41.128124 67.57629 41.128124 69.70129ZM47.05 69.70129Q47.05 68.17004 47.3625 67.24816Q47.675 66.31066 48.284374 65.81066Q48.909374 65.31066 49.846874 65.31066Q50.534374 65.31066 51.05 65.59191Q51.58125 65.87316 51.925 66.40441Q52.26875 66.92004 52.45625 67.67004Q52.64375 68.42004 52.64375 69.70129Q52.64375 71.21691 52.33125 72.13879Q52.034374 73.06066 51.409374 73.57629Q50.8 74.07629 49.846874 74.07629Q48.6125 74.07629 47.89375 73.18566Q47.05 72.12316 47.05 69.70129ZM48.128124 69.70129Q48.128124 71.81066 48.628124 72.51379Q49.128124 73.21691 49.846874 73.21691Q50.58125 73.21691 51.065624 72.51379Q51.565624 71.81066 51.565624 69.70129Q51.565624 67.57629 51.065624 66.88879Q50.58125 66.18566 49.83125 66.18566Q49.1125 66.18566 48.675 66.79504Q48.128124 67.57629 48.128124 69.70129Z" fill-rule="nonzero"/><path fill="#000000" d="M57.01875 291.08334L55.971874 291.08334L55.971874 284.3646Q55.58125 284.72397 54.95625 285.09897Q54.346874 285.45834 53.8625 285.63022L53.8625 284.6146Q54.7375 284.19272 55.39375 283.6146Q56.065624 283.02084 56.346874 282.45834L57.01875 282.45834L57.01875 291.08334ZM60.05 286.84897Q60.05 285.31772 60.3625 284.39584Q60.675 283.45834 61.284374 282.95834Q61.909374 282.45834 62.846874 282.45834Q63.534374 282.45834 64.05 282.7396Q64.58125 283.02084 64.925 283.5521Q65.26875 284.06772 65.45625 284.81772Q65.64375 285.56772 65.64375 286.84897Q65.64375 288.3646 65.33125 289.28647Q65.03438 290.20834 64.40938 290.72397Q63.8 291.22397 62.846874 291.22397Q61.6125 291.22397 60.89375 290.33334Q60.05 289.27084 60.05 286.84897ZM61.128124 286.84897Q61.128124 288.95834 61.628124 289.66147Q62.128124 290.3646 62.846874 290.3646Q63.58125 290.3646 64.06563 289.66147Q64.56563 288.95834 64.56563 286.84897Q64.56563 284.72397 64.06563 284.03647Q63.58125 283.33334 62.83125 283.33334Q62.1125 283.33334 61.675 283.94272Q61.128124 284.72397 61.128124 286.84897Z" fill-rule="nonzero"/><path fill="#000000" d="M230.98541 291.08334L229.93854 291.08334L229.93854 284.3646Q229.54791 284.72397 228.92291 285.09897Q228.31354 285.45834 227.82916 285.63022L227.82916 284.6146Q228.70416 284.19272 229.36041 283.6146Q230.03229 283.02084 230.31354 282.45834L230.98541 282.45834L230.98541 291.08334ZM239.56354 290.06772L239.56354 291.08334L233.87604 291.08334Q233.87604 290.70834 234.00104 290.34897Q234.21979 289.77084 234.68854 289.20834Q235.17291 288.64584 236.07916 287.91147Q237.48541 286.75522 237.96979 286.08334Q238.46979 285.41147 238.46979 284.81772Q238.46979 284.19272 238.01666 283.77084Q237.56354 283.33334 236.84479 283.33334Q236.07916 283.33334 235.62604 283.78647Q235.17291 284.2396 235.15729 285.0521L234.07916 284.94272Q234.18854 283.72397 234.90729 283.09897Q235.64166 282.45834 236.87604 282.45834Q238.11041 282.45834 238.82916 283.14584Q239.54791 283.83334 239.54791 284.84897Q239.54791 285.3646 239.32916 285.8646Q239.12604 286.34897 238.62604 286.91147Q238.14166 287.45834 237.01666 288.41147Q236.06354 289.20834 235.78229 289.50522Q235.51666 289.78647 235.34479 290.06772L239.56354 290.06772Z" fill-rule="nonzero"/><path fill="#000000" d="M404.9521 291.08334L403.9052 291.08334L403.9052 284.3646Q403.5146 284.72397 402.8896 285.09897Q402.2802 285.45834 401.79584 285.63022L401.79584 284.6146Q402.67084 284.19272 403.3271 283.6146Q403.99896 283.02084 404.2802 282.45834L404.9521 282.45834L404.9521 291.08334ZM411.35834 291.08334L411.35834 289.02084L407.6396 289.02084L407.6396 288.0521L411.56146 282.4896L412.42084 282.4896L412.42084 288.0521L413.5771 288.0521L413.5771 289.02084L412.42084 289.02084L412.42084 291.08334L411.35834 291.08334ZM411.35834 288.0521L411.35834 284.19272L408.67084 288.0521L411.35834 288.0521Z" fill-rule="nonzero"/><path fill="#000000" d="M578.91876 291.08334L577.8719 291.08334L577.8719 284.3646Q577.48126 284.72397 576.85626 285.09897Q576.2469 285.45834 575.7625 285.63022L575.7625 284.6146Q576.6375 284.19272 577.29376 283.6146Q577.96564 283.02084 578.2469 282.45834L578.91876 282.45834L578.91876 291.08334ZM587.41876 284.59897L586.3719 284.6771Q586.23126 284.0521 585.98126 283.77084Q585.54376 283.31772 584.91876 283.31772Q584.41876 283.31772 584.02814 283.59897Q583.54376 283.97397 583.2469 284.6771Q582.96564 285.3646 582.95 286.64584Q583.325 286.06772 583.8719 285.78647Q584.4344 285.50522 585.04376 285.50522Q586.09064 285.50522 586.825 286.28647Q587.575 287.06772 587.575 288.28647Q587.575 289.09897 587.21564 289.8021Q586.8719 290.4896 586.2625 290.8646Q585.65314 291.22397 584.8875 291.22397Q583.5594 291.22397 582.73126 290.25522Q581.90314 289.28647 581.90314 287.06772Q581.90314 284.56772 582.825 283.44272Q583.6219 282.45834 584.98126 282.45834Q585.9969 282.45834 586.6375 283.03647Q587.29376 283.59897 587.41876 284.59897ZM583.1219 288.3021Q583.1219 288.84897 583.34064 289.34897Q583.575 289.83334 583.98126 290.09897Q584.40314 290.3646 584.8719 290.3646Q585.52814 290.3646 586.0125 289.83334Q586.4969 289.28647 586.4969 288.3646Q586.4969 287.47397 586.0125 286.95834Q585.54376 286.44272 584.825 286.44272Q584.10626 286.44272 583.60626 286.95834Q583.1219 287.47397 583.1219 288.3021Z" fill-rule="nonzero"/><path stroke="#4285f4" stroke-width="4.0" stroke-linecap="butt" d="M87.0 345.45L99.0 345.45" fill-rule="nonzero"/><path fill="#1a1a1a" d="M107.96875 349.45L107.96875 340.85626L109.09375 340.85626L109.09375 344.3875L113.5625 344.3875L113.5625 340.85626L114.703125 340.85626L114.703125 349.45L113.5625 349.45L113.5625 345.40314L109.09375 345.40314L109.09375 349.45L107.96875 349.45ZM119.109375 349.45L119.109375 341.8719L116.28125 341.8719L116.28125 340.85626L123.09375 340.85626L123.09375 341.8719L120.25 341.8719L120.25 349.45L119.109375 349.45ZM123.890625 349.45L123.890625 340.85626L125.609375 340.85626L127.640625 346.9344Q127.921875 347.79376 128.04688 348.21564Q128.1875 347.7469 128.5 346.84064L130.5625 340.85626L132.09375 340.85626L132.09375 349.45L131.0 349.45L131.0 342.2625L128.5 349.45L127.46875 349.45L124.984375 342.1375L124.984375 349.45L123.890625 349.45ZM132.875 349.45L132.875 340.85626L134.01562 340.85626L134.01562 348.4344L138.25 348.4344L138.25 349.45L132.875 349.45ZM142.375 347.59064L143.40625 347.4344Q143.5 348.0594 143.89062 348.3875Q144.29688 348.71564 145.03125 348.71564Q145.75 348.71564 146.09375 348.4344Q146.45312 348.1375 146.45312 347.73126Q146.45312 347.3719 146.14062 347.16876Q145.92188 347.02814 145.0625 346.8094Q143.90625 346.5125 143.45312 346.3094Q143.01562 346.09064 142.78125 345.71564Q142.54688 345.34064 142.54688 344.8719Q142.54688 344.46564 142.73438 344.10626Q142.92188 343.7469 143.25 343.5125Q143.5 343.34064 143.92188 343.21564Q144.34375 343.09064 144.84375 343.09064Q145.5625 343.09064 146.10938 343.3094Q146.67188 343.5125 146.9375 343.8719Q147.20312 344.23126 147.29688 344.825L146.26562 344.96564Q146.20312 344.4969 145.85938 344.23126Q145.53125 343.95 144.90625 343.95Q144.1875 343.95 143.875 344.2Q143.5625 344.4344 143.5625 344.7625Q143.5625 344.96564 143.6875 345.1219Q143.82812 345.29376 144.09375 345.40314Q144.25 345.46564 145.03125 345.66876Q146.15625 345.98126 146.59375 346.16876Q147.03125 346.35626 147.28125 346.71564Q147.53125 347.075 147.53125 347.6219Q147.53125 348.15314 147.21875 348.6219Q146.92188 349.075 146.34375 349.34064Q145.76562 349.59064 145.03125 349.59064Q143.8125 349.59064 143.17188 349.09064Q142.54688 348.575 142.375 347.59064ZM149.79688 342.075L149.79688 340.85626L150.85938 340.85626L150.85938 342.075L149.79688 342.075ZM149.79688 349.45L149.79688 343.23126L150.85938 343.23126L150.85938 349.45L149.79688 349.45ZM152.23438 349.45L152.23438 348.59064L156.20312 344.04376Q155.51562 344.075 155.0 344.075L152.46875 344.075L152.46875 343.23126L157.5625 343.23126L157.5625 343.91876L154.1875 347.8719L153.53125 348.59064Q154.25 348.54376 154.85938 348.54376L157.75 348.54376L157.75 349.45L152.23438 349.45ZM162.04688 347.45L163.14062 347.575Q162.89062 348.52814 162.1875 349.0594Q161.48438 349.59064 160.40625 349.59064Q159.04688 349.59064 158.23438 348.7469Q157.4375 347.90314 157.4375 346.3875Q157.4375 344.825 158.25 343.96564Q159.0625 343.09064 160.34375 343.09064Q161.59375 343.09064 162.375 343.9344Q163.17188 344.77814 163.17188 346.325Q163.17188 346.41876 163.17188 346.60626L158.53125 346.60626Q158.59375 347.6375 159.10938 348.1844Q159.625 348.71564 160.40625 348.71564Q160.98438 348.71564 161.39062 348.41876Q161.8125 348.10626 162.04688 347.45ZM158.59375 345.7469L162.0625 345.7469Q162.0 344.95 161.67188 344.5594Q161.15625 343.95 160.35938 343.95Q159.625 343.95 159.125 344.4344Q158.64062 344.91876 158.59375 345.7469ZM169.8125 351.98126Q168.9375 350.8719 168.32812 349.40314Q167.73438 347.91876 167.73438 346.34064Q167.73438 344.95 168.17188 343.66876Q168.70312 342.1844 169.8125 340.71564L170.5625 340.71564Q169.85938 341.9344 169.625 342.45Q169.26562 343.2625 169.0625 344.1375Q168.8125 345.23126 168.8125 346.34064Q168.8125 349.16876 170.5625 351.98126L169.8125 351.98126ZM171.79688 349.45L171.79688 340.85626L172.85938 340.85626L172.85938 345.7625L175.34375 343.23126L176.71875 343.23126L174.32812 345.52814L176.95312 349.45L175.65625 349.45L173.59375 346.2625L172.85938 346.98126L172.85938 349.45L171.79688 349.45ZM177.875 349.45L177.875 340.85626L181.10938 340.85626Q182.09375 340.85626 182.6875 341.1219Q183.28125 341.3875 183.60938 341.9344Q183.95312 342.46564 183.95312 343.0594Q183.95312 343.60626 183.65625 344.09064Q183.35938 344.575 182.75 344.8719Q183.53125 345.10626 183.9375 345.66876Q184.35938 346.21564 184.35938 346.96564Q184.35938 347.5594 184.10938 348.09064Q183.85938 348.60626 183.48438 348.8875Q183.10938 349.16876 182.53125 349.3094Q181.96875 349.45 181.15625 349.45L177.875 349.45ZM179.01562 344.46564L180.875 344.46564Q181.625 344.46564 181.95312 344.3719Q182.39062 344.2469 182.60938 343.95Q182.82812 343.6375 182.82812 343.1844Q182.82812 342.7625 182.625 342.4344Q182.42188 342.10626 182.03125 341.9969Q181.65625 341.8719 180.73438 341.8719L179.01562 341.8719L179.01562 344.46564ZM179.01562 348.4344L181.15625 348.4344Q181.70312 348.4344 181.92188 348.3875Q182.32812 348.325 182.57812 348.16876Q182.84375 347.9969 183.01562 347.6844Q183.1875 347.3719 183.1875 346.96564Q183.1875 346.48126 182.9375 346.1219Q182.70312 345.7625 182.26562 345.6219Q181.82812 345.48126 181.0 345.48126L179.01562 345.48126L179.01562 348.4344ZM186.48438 351.98126L185.73438 351.98126Q187.48438 349.16876 187.48438 346.34064Q187.48438 345.2469 187.23438 344.15314Q187.03125 343.27814 186.67188 342.46564Q186.4375 341.95 185.73438 340.71564L186.48438 340.71564Q187.57812 342.1844 188.10938 343.66876Q188.5625 344.95 188.5625 346.34064Q188.5625 347.91876 187.95312 349.40314Q187.34375 350.8719 186.48438 351.98126Z" fill-rule="nonzero"/><path stroke="#ea4335" stroke-width="4.0" stroke-linecap="butt" d="M205.0 345.45L217.0 345.45" fill-rule="nonzero"/><path fill="#1a1a1a" d="M225.9375 349.45L225.9375 340.85626L229.75 340.85626Q230.90625 340.85626 231.5 341.09064Q232.09375 341.325 232.45312 341.91876Q232.8125 342.4969 232.8125 343.2Q232.8125 344.1219 232.21875 344.7469Q231.625 345.3719 230.39062 345.54376Q230.84375 345.7625 231.07812 345.96564Q231.57812 346.41876 232.01562 347.10626L233.51562 349.45L232.07812 349.45L230.95312 347.66876Q230.45312 346.8875 230.125 346.48126Q229.8125 346.075 229.54688 345.91876Q229.29688 345.7469 229.03125 345.66876Q228.84375 345.6375 228.40625 345.6375L227.07812 345.6375L227.07812 349.45L225.9375 349.45ZM227.07812 344.65314L229.53125 344.65314Q230.29688 344.65314 230.73438 344.4969Q231.1875 344.325 231.40625 343.98126Q231.64062 343.6219 231.64062 343.2Q231.64062 342.59064 231.1875 342.2Q230.75 341.8094 229.79688 341.8094L227.07812 341.8094L227.07812 344.65314ZM239.04688 347.45L240.14062 347.575Q239.89062 348.52814 239.1875 349.0594Q238.48438 349.59064 237.40625 349.59064Q236.04688 349.59064 235.23438 348.7469Q234.4375 347.90314 234.4375 346.3875Q234.4375 344.825 235.25 343.96564Q236.0625 343.09064 237.34375 343.09064Q238.59375 343.09064 239.375 343.9344Q240.17188 344.77814 240.17188 346.325Q240.17188 346.41876 240.17188 346.60626L235.53125 346.60626Q235.59375 347.6375 236.10938 348.1844Q236.625 348.71564 237.40625 348.71564Q237.98438 348.71564 238.39062 348.41876Q238.8125 348.10626 239.04688 347.45ZM235.59375 345.7469L239.0625 345.7469Q239.0 344.95 238.67188 344.5594Q238.15625 343.95 237.35938 343.95Q236.625 343.95 236.125 344.4344Q235.64062 344.91876 235.59375 345.7469ZM245.85938 348.6844Q245.26562 349.1844 244.71875 349.3875Q244.1875 349.59064 243.5625 349.59064Q242.53125 349.59064 241.98438 349.09064Q241.4375 348.59064 241.4375 347.8094Q241.4375 347.35626 241.64062 346.98126Q241.84375 346.59064 242.1875 346.3719Q242.53125 346.1375 242.95312 346.02814Q243.25 345.9344 243.89062 345.85626Q245.15625 345.71564 245.76562 345.4969Q245.76562 345.27814 245.76562 345.23126Q245.76562 344.575 245.46875 344.3094Q245.0625 343.96564 244.26562 343.96564Q243.53125 343.96564 243.17188 344.23126Q242.8125 344.48126 242.64062 345.1375L241.60938 344.9969Q241.75 344.34064 242.07812 343.9344Q242.40625 343.52814 243.01562 343.3094Q243.625 343.09064 244.42188 343.09064Q245.21875 343.09064 245.71875 343.27814Q246.21875 343.46564 246.45312 343.7469Q246.6875 344.02814 246.78125 344.46564Q246.82812 344.73126 246.82812 345.4344L246.82812 346.84064Q246.82812 348.3094 246.89062 348.7Q246.96875 349.09064 247.17188 349.45L246.0625 349.45Q245.90625 349.1219 245.85938 348.6844ZM245.76562 346.325Q245.1875 346.5594 244.04688 346.73126Q243.39062 346.825 243.125 346.95Q242.85938 347.0594 242.70312 347.27814Q242.5625 347.4969 242.5625 347.77814Q242.5625 348.2 242.875 348.48126Q243.20312 348.7625 243.8125 348.7625Q244.42188 348.7625 244.89062 348.4969Q245.375 348.23126 245.59375 347.7625Q245.76562 347.40314 245.76562 346.71564L245.76562 346.325ZM252.85938 347.16876L253.89062 347.3094Q253.71875 348.3719 253.01562 348.98126Q252.3125 349.59064 251.29688 349.59064Q250.01562 349.59064 249.23438 348.7625Q248.46875 347.91876 248.46875 346.35626Q248.46875 345.35626 248.79688 344.60626Q249.14062 343.84064 249.8125 343.46564Q250.5 343.09064 251.3125 343.09064Q252.3125 343.09064 252.95312 343.60626Q253.60938 344.10626 253.79688 345.0594L252.76562 345.21564Q252.625 344.59064 252.25 344.27814Q251.875 343.95 251.34375 343.95Q250.54688 343.95 250.04688 344.52814Q249.54688 345.09064 249.54688 346.325Q249.54688 347.59064 250.03125 348.15314Q250.51562 348.71564 251.28125 348.71564Q251.90625 348.71564 252.3125 348.34064Q252.73438 347.96564 252.85938 347.16876ZM257.09375 348.5125L257.25 349.4344Q256.79688 349.52814 256.45312 349.52814Q255.875 349.52814 255.5625 349.35626Q255.25 349.16876 255.10938 348.8719Q254.98438 348.575 254.98438 347.6219L254.98438 344.04376L254.21875 344.04376L254.21875 343.23126L254.98438 343.23126L254.98438 341.6844L256.03125 341.0594L256.03125 343.23126L257.09375 343.23126L257.09375 344.04376L256.03125 344.04376L256.03125 347.6844Q256.03125 348.1375 256.07812 348.2625Q256.14062 348.3875 256.26562 348.46564Q256.39062 348.54376 256.625 348.54376Q256.8125 348.54376 257.09375 348.5125ZM264.85938 347.16876L265.89062 347.3094Q265.71875 348.3719 265.01562 348.98126Q264.3125 349.59064 263.29688 349.59064Q262.01562 349.59064 261.23438 348.7625Q260.46875 347.91876 260.46875 346.35626Q260.46875 345.35626 260.79688 344.60626Q261.14062 343.84064 261.8125 343.46564Q262.5 343.09064 263.3125 343.09064Q264.3125 343.09064 264.95312 343.60626Q265.60938 344.10626 265.79688 345.0594L264.76562 345.21564Q264.625 344.59064 264.25 344.27814Q263.875 343.95 263.34375 343.95Q262.54688 343.95 262.04688 344.52814Q261.54688 345.09064 261.54688 346.325Q261.54688 347.59064 262.03125 348.15314Q262.51562 348.71564 263.28125 348.71564Q263.90625 348.71564 264.3125 348.34064Q264.73438 347.96564 264.85938 347.16876ZM266.40625 346.34064Q266.40625 344.60626 267.35938 343.77814Q268.15625 343.09064 269.3125 343.09064Q270.59375 343.09064 271.40625 343.9344Q272.23438 344.7625 272.23438 346.2469Q272.23438 347.45 271.875 348.1375Q271.51562 348.825 270.8125 349.21564Q270.125 349.59064 269.3125 349.59064Q268.01562 349.59064 267.20312 348.7625Q266.40625 347.91876 266.40625 346.34064ZM267.48438 346.34064Q267.48438 347.52814 268.0 348.1219Q268.53125 348.71564 269.3125 348.71564Q270.10938 348.71564 270.625 348.1219Q271.14062 347.52814 271.14062 346.3094Q271.14062 345.15314 270.60938 344.5594Q270.09375 343.96564 269.3125 343.96564Q268.53125 343.96564 268.0 344.5594Q267.48438 345.1375 267.48438 346.34064ZM273.79688 349.45L273.79688 343.23126L274.73438 343.23126L274.73438 344.10626Q275.03125 343.6375 275.51562 343.3719Q276.0 343.09064 276.625 343.09064Q277.3125 343.09064 277.75 343.3719Q278.20312 343.65314 278.375 344.16876Q279.125 343.09064 280.29688 343.09064Q281.23438 343.09064 281.71875 343.60626Q282.21875 344.10626 282.21875 345.1844L282.21875 349.45L281.17188 349.45L281.17188 345.52814Q281.17188 344.90314 281.0625 344.6219Q280.96875 344.34064 280.70312 344.16876Q280.4375 343.9969 280.0625 343.9969Q279.40625 343.9969 278.96875 344.4344Q278.54688 344.8719 278.54688 345.84064L278.54688 349.45L277.48438 349.45L277.48438 345.40314Q277.48438 344.7 277.21875 344.35626Q276.96875 343.9969 276.39062 343.9969Q275.9375 343.9969 275.5625 344.23126Q275.1875 344.46564 275.01562 344.91876Q274.84375 345.3719 274.84375 346.21564L274.84375 349.45L273.79688 349.45ZM284.79688 351.84064L284.79688 343.23126L285.75 343.23126L285.75 344.02814Q286.09375 343.5594 286.51562 343.325Q286.95312 343.09064 287.5625 343.09064Q288.35938 343.09064 288.96875 343.4969Q289.57812 343.90314 289.875 344.65314Q290.1875 345.40314 290.1875 346.29376Q290.1875 347.2469 289.84375 348.0125Q289.51562 348.77814 288.85938 349.1844Q288.20312 349.59064 287.48438 349.59064Q286.95312 349.59064 286.53125 349.3719Q286.10938 349.1375 285.84375 348.8094L285.84375 351.84064L284.79688 351.84064ZM285.75 346.3719Q285.75 347.575 286.23438 348.15314Q286.71875 348.71564 287.40625 348.71564Q288.10938 348.71564 288.60938 348.1219Q289.10938 347.52814 289.10938 346.27814Q289.10938 345.09064 288.625 344.5125Q288.14062 343.91876 287.45312 343.91876Q286.78125 343.91876 286.26562 344.54376Q285.75 345.16876 285.75 346.3719ZM291.40625 346.34064Q291.40625 344.60626 292.35938 343.77814Q293.15625 343.09064 294.3125 343.09064Q295.59375 343.09064 296.40625 343.9344Q297.23438 344.7625 297.23438 346.2469Q297.23438 347.45 296.875 348.1375Q296.51562 348.825 295.8125 349.21564Q295.125 349.59064 294.3125 349.59064Q293.01562 349.59064 292.20312 348.7625Q291.40625 347.91876 291.40625 346.34064ZM292.48438 346.34064Q292.48438 347.52814 293.0 348.1219Q293.53125 348.71564 294.3125 348.71564Q295.10938 348.71564 295.625 348.1219Q296.14062 347.52814 296.14062 346.3094Q296.14062 345.15314 295.60938 344.5594Q295.09375 343.96564 294.3125 343.96564Q293.53125 343.96564 293.0 344.5594Q292.48438 345.1375 292.48438 346.34064ZM298.79688 349.45L298.79688 343.23126L299.73438 343.23126L299.73438 344.10626Q300.42188 343.09064 301.71875 343.09064Q302.28125 343.09064 302.75 343.29376Q303.23438 343.4969 303.46875 343.825Q303.70312 344.15314 303.79688 344.59064Q303.84375 344.8875 303.84375 345.6219L303.84375 349.45L302.79688 349.45L302.79688 345.66876Q302.79688 345.0125 302.67188 344.7Q302.54688 344.3875 302.23438 344.2Q301.92188 343.9969 301.5 343.9969Q300.82812 343.9969 300.32812 344.4344Q299.84375 344.85626 299.84375 346.04376L299.84375 349.45L298.79688 349.45ZM310.04688 347.45L311.14062 347.575Q310.89062 348.52814 310.1875 349.0594Q309.48438 349.59064 308.40625 349.59064Q307.04688 349.59064 306.23438 348.7469Q305.4375 347.90314 305.4375 346.3875Q305.4375 344.825 306.25 343.96564Q307.0625 343.09064 308.34375 343.09064Q309.59375 343.09064 310.375 343.9344Q311.17188 344.77814 311.17188 346.325Q311.17188 346.41876 311.17188 346.60626L306.53125 346.60626Q306.59375 347.6375 307.10938 348.1844Q307.625 348.71564 308.40625 348.71564Q308.98438 348.71564 309.39062 348.41876Q309.8125 348.10626 310.04688 347.45ZM306.59375 345.7469L310.0625 345.7469Q310.0 344.95 309.67188 344.5594Q309.15625 343.95 308.35938 343.95Q307.625 343.95 307.125 344.4344Q306.64062 344.91876 306.59375 345.7469ZM312.79688 349.45L312.79688 343.23126L313.73438 343.23126L313.73438 344.10626Q314.42188 343.09064 315.71875 343.09064Q316.28125 343.09064 316.75 343.29376Q317.23438 343.4969 317.46875 343.825Q317.70312 344.15314 317.79688 344.59064Q317.84375 344.8875 317.84375 345.6219L317.84375 349.45L316.79688 349.45L316.79688 345.66876Q316.79688 345.0125 316.67188 344.7Q316.54688 344.3875 316.23438 344.2Q315.92188 343.9969 315.5 343.9969Q314.82812 343.9969 314.32812 344.4344Q313.84375 344.85626 313.84375 346.04376L313.84375 349.45L312.79688 349.45ZM322.09375 348.5125L322.25 349.4344Q321.79688 349.52814 321.45312 349.52814Q320.875 349.52814 320.5625 349.35626Q320.25 349.16876 320.10938 348.8719Q319.98438 348.575 319.98438 347.6219L319.98438 344.04376L319.21875 344.04376L319.21875 343.23126L319.98438 343.23126L319.98438 341.6844L321.03125 341.0594L321.03125 343.23126L322.09375 343.23126L322.09375 344.04376L321.03125 344.04376L321.03125 347.6844Q321.03125 348.1375 321.07812 348.2625Q321.14062 348.3875 321.26562 348.46564Q321.39062 348.54376 321.625 348.54376Q321.8125 348.54376 322.09375 348.5125ZM328.09375 348.5125L328.25 349.4344Q327.79688 349.52814 327.45312 349.52814Q326.875 349.52814 326.5625 349.35626Q326.25 349.16876 326.10938 348.8719Q325.98438 348.575 325.98438 347.6219L325.98438 344.04376L325.21875 344.04376L325.21875 343.23126L325.98438 343.23126L325.98438 341.6844L327.03125 341.0594L327.03125 343.23126L328.09375 343.23126L328.09375 344.04376L327.03125 344.04376L327.03125 347.6844Q327.03125 348.1375 327.07812 348.2625Q327.14062 348.3875 327.26562 348.46564Q327.39062 348.54376 327.625 348.54376Q327.8125 348.54376 328.09375 348.5125ZM328.78125 349.45L328.78125 343.23126L329.73438 343.23126L329.73438 344.16876Q330.09375 343.5125 330.39062 343.3094Q330.70312 343.09064 331.07812 343.09064Q331.60938 343.09064 332.15625 343.41876L331.79688 344.40314Q331.40625 344.16876 331.03125 344.16876Q330.67188 344.16876 330.39062 344.3875Q330.125 344.59064 330.01562 344.96564Q329.82812 345.52814 329.82812 346.1844L329.82812 349.45L328.78125 349.45ZM337.04688 347.45L338.14062 347.575Q337.89062 348.52814 337.1875 349.0594Q336.48438 349.59064 335.40625 349.59064Q334.04688 349.59064 333.23438 348.7469Q332.4375 347.90314 332.4375 346.3875Q332.4375 344.825 333.25 343.96564Q334.0625 343.09064 335.34375 343.09064Q336.59375 343.09064 337.375 343.9344Q338.17188 344.77814 338.17188 346.325Q338.17188 346.41876 338.17188 346.60626L333.53125 346.60626Q333.59375 347.6375 334.10938 348.1844Q334.625 348.71564 335.40625 348.71564Q335.98438 348.71564 336.39062 348.41876Q336.8125 348.10626 337.04688 347.45ZM333.59375 345.7469L337.0625 345.7469Q337.0 344.95 336.67188 344.5594Q336.15625 343.95 335.35938 343.95Q334.625 343.95 334.125 344.4344Q333.64062 344.91876 333.59375 345.7469ZM344.04688 347.45L345.14062 347.575Q344.89062 348.52814 344.1875 349.0594Q343.48438 349.59064 342.40625 349.59064Q341.04688 349.59064 340.23438 348.7469Q339.4375 347.90314 339.4375 346.3875Q339.4375 344.825 340.25 343.96564Q341.0625 343.09064 342.34375 343.09064Q343.59375 343.09064 344.375 343.9344Q345.17188 344.77814 345.17188 346.325Q345.17188 346.41876 345.17188 346.60626L340.53125 346.60626Q340.59375 347.6375 341.10938 348.1844Q341.625 348.71564 342.40625 348.71564Q342.98438 348.71564 343.39062 348.41876Q343.8125 348.10626 344.04688 347.45ZM340.59375 345.7469L344.0625 345.7469Q344.0 344.95 343.67188 344.5594Q343.15625 343.95 342.35938 343.95Q341.625 343.95 341.125 344.4344Q340.64062 344.91876 340.59375 345.7469ZM349.375 347.59064L350.40625 347.4344Q350.5 348.0594 350.89062 348.3875Q351.29688 348.71564 352.03125 348.71564Q352.75 348.71564 353.09375 348.4344Q353.45312 348.1375 353.45312 347.73126Q353.45312 347.3719 353.14062 347.16876Q352.92188 347.02814 352.0625 346.8094Q350.90625 346.5125 350.45312 346.3094Q350.01562 346.09064 349.78125 345.71564Q349.54688 345.34064 349.54688 344.8719Q349.54688 344.46564 349.73438 344.10626Q349.92188 343.7469 350.25 343.5125Q350.5 343.34064 350.92188 343.21564Q351.34375 343.09064 351.84375 343.09064Q352.5625 343.09064 353.10938 343.3094Q353.67188 343.5125 353.9375 343.8719Q354.20312 344.23126 354.29688 344.825L353.26562 344.96564Q353.20312 344.4969 352.85938 344.23126Q352.53125 343.95 351.90625 343.95Q351.1875 343.95 350.875 344.2Q350.5625 344.4344 350.5625 344.7625Q350.5625 344.96564 350.6875 345.1219Q350.82812 345.29376 351.09375 345.40314Q351.25 345.46564 352.03125 345.66876Q353.15625 345.98126 353.59375 346.16876Q354.03125 346.35626 354.28125 346.71564Q354.53125 347.075 354.53125 347.6219Q354.53125 348.15314 354.21875 348.6219Q353.92188 349.075 353.34375 349.34064Q352.76562 349.59064 352.03125 349.59064Q350.8125 349.59064 350.17188 349.09064Q349.54688 348.575 349.375 347.59064ZM356.79688 342.075L356.79688 340.85626L357.85938 340.85626L357.85938 342.075L356.79688 342.075ZM356.79688 349.45L356.79688 343.23126L357.85938 343.23126L357.85938 349.45L356.79688 349.45ZM359.23438 349.45L359.23438 348.59064L363.20312 344.04376Q362.51562 344.075 362.0 344.075L359.46875 344.075L359.46875 343.23126L364.5625 343.23126L364.5625 343.91876L361.1875 347.8719L360.53125 348.59064Q361.25 348.54376 361.85938 348.54376L364.75 348.54376L364.75 349.45L359.23438 349.45ZM369.04688 347.45L370.14062 347.575Q369.89062 348.52814 369.1875 349.0594Q368.48438 349.59064 367.40625 349.59064Q366.04688 349.59064 365.23438 348.7469Q364.4375 347.90314 364.4375 346.3875Q364.4375 344.825 365.25 343.96564Q366.0625 343.09064 367.34375 343.09064Q368.59375 343.09064 369.375 343.9344Q370.17188 344.77814 370.17188 346.325Q370.17188 346.41876 370.17188 346.60626L365.53125 346.60626Q365.59375 347.6375 366.10938 348.1844Q366.625 348.71564 367.40625 348.71564Q367.98438 348.71564 368.39062 348.41876Q368.8125 348.10626 369.04688 347.45ZM365.59375 345.7469L369.0625 345.7469Q369.0 344.95 368.67188 344.5594Q368.15625 343.95 367.35938 343.95Q366.625 343.95 366.125 344.4344Q365.64062 344.91876 365.59375 345.7469Z" fill-rule="nonzero"/><path stroke="#fbbc04" stroke-width="4.0" stroke-linecap="butt" d="M387.0 345.45L399.0 345.45" fill-rule="nonzero"/><path fill="#1a1a1a" d="M407.89062 349.45L407.89062 340.85626L409.60938 340.85626L411.64062 346.9344Q411.92188 347.79376 412.04688 348.21564Q412.1875 347.7469 412.5 346.84064L414.5625 340.85626L416.09375 340.85626L416.09375 349.45L415.0 349.45L415.0 342.2625L412.5 349.45L411.46875 349.45L408.98438 342.1375L408.98438 349.45L407.89062 349.45ZM421.04688 347.45L422.14062 347.575Q421.89062 348.52814 421.1875 349.0594Q420.48438 349.59064 419.40625 349.59064Q418.04688 349.59064 417.23438 348.7469Q416.4375 347.90314 416.4375 346.3875Q416.4375 344.825 417.25 343.96564Q418.0625 343.09064 419.34375 343.09064Q420.59375 343.09064 421.375 343.9344Q422.17188 344.77814 422.17188 346.325Q422.17188 346.41876 422.17188 346.60626L417.53125 346.60626Q417.59375 347.6375 418.10938 348.1844Q418.625 348.71564 419.40625 348.71564Q419.98438 348.71564 420.39062 348.41876Q420.8125 348.10626 421.04688 347.45ZM417.59375 345.7469L421.0625 345.7469Q421.0 344.95 420.67188 344.5594Q420.15625 343.95 419.35938 343.95Q418.625 343.95 418.125 344.4344Q417.64062 344.91876 417.59375 345.7469ZM423.79688 349.45L423.79688 343.23126L424.73438 343.23126L424.73438 344.10626Q425.03125 343.6375 425.51562 343.3719Q426.0 343.09064 426.625 343.09064Q427.3125 343.09064 427.75 343.3719Q428.20312 343.65314 428.375 344.16876Q429.125 343.09064 430.29688 343.09064Q431.23438 343.09064 431.71875 343.60626Q432.21875 344.10626 432.21875 345.1844L432.21875 349.45L431.17188 349.45L431.17188 345.52814Q431.17188 344.90314 431.0625 344.6219Q430.96875 344.34064 430.70312 344.16876Q430.4375 343.9969 430.0625 343.9969Q429.40625 343.9969 428.96875 344.4344Q428.54688 344.8719 428.54688 345.84064L428.54688 349.45L427.48438 349.45L427.48438 345.40314Q427.48438 344.7 427.21875 344.35626Q426.96875 343.9969 426.39062 343.9969Q425.9375 343.9969 425.5625 344.23126Q425.1875 344.46564 425.01562 344.91876Q424.84375 345.3719 424.84375 346.21564L424.84375 349.45L423.79688 349.45ZM434.40625 346.34064Q434.40625 344.60626 435.35938 343.77814Q436.15625 343.09064 437.3125 343.09064Q438.59375 343.09064 439.40625 343.9344Q440.23438 344.7625 440.23438 346.2469Q440.23438 347.45 439.875 348.1375Q439.51562 348.825 438.8125 349.21564Q438.125 349.59064 437.3125 349.59064Q436.01562 349.59064 435.20312 348.7625Q434.40625 347.91876 434.40625 346.34064ZM435.48438 346.34064Q435.48438 347.52814 436.0 348.1219Q436.53125 348.71564 437.3125 348.71564Q438.10938 348.71564 438.625 348.1219Q439.14062 347.52814 439.14062 346.3094Q439.14062 345.15314 438.60938 344.5594Q438.09375 343.96564 437.3125 343.96564Q436.53125 343.96564 436.0 344.5594Q435.48438 345.1375 435.48438 346.34064ZM441.78125 349.45L441.78125 343.23126L442.73438 343.23126L442.73438 344.16876Q443.09375 343.5125 443.39062 343.3094Q443.70312 343.09064 444.07812 343.09064Q444.60938 343.09064 445.15625 343.41876L444.79688 344.40314Q444.40625 344.16876 444.03125 344.16876Q443.67188 344.16876 443.39062 344.3875Q443.125 344.59064 443.01562 344.96564Q442.82812 345.52814 442.82812 346.1844L442.82812 349.45L441.78125 349.45ZM445.75 351.84064L445.625 350.85626Q445.96875 350.95 446.23438 350.95Q446.57812 350.95 446.78125 350.825Q447.0 350.71564 447.14062 350.5125Q447.23438 350.34064 447.46875 349.71564Q447.48438 349.6375 447.5625 349.46564L445.1875 343.23126L446.32812 343.23126L447.625 346.825Q447.875 347.5125 448.07812 348.27814Q448.26562 347.54376 448.51562 346.85626L449.84375 343.23126L450.89062 343.23126L448.53125 349.5594Q448.14062 350.575 447.9375 350.96564Q447.65625 351.4969 447.28125 351.73126Q446.92188 351.98126 446.42188 351.98126Q446.125 351.98126 445.75 351.84064ZM457.875 349.45L457.875 348.52814Q457.14062 349.59064 455.89062 349.59064Q455.34375 349.59064 454.85938 349.3875Q454.39062 349.16876 454.15625 348.85626Q453.92188 348.52814 453.82812 348.0594Q453.76562 347.7625 453.76562 347.075L453.76562 343.23126L454.82812 343.23126L454.82812 346.6844Q454.82812 347.4969 454.89062 347.79376Q454.98438 348.2 455.29688 348.45Q455.625 348.6844 456.10938 348.6844Q456.57812 348.6844 456.98438 348.45Q457.40625 348.2 457.57812 347.77814Q457.76562 347.35626 457.76562 346.5594L457.76562 343.23126L458.8125 343.23126L458.8125 349.45L457.875 349.45ZM460.375 347.59064L461.40625 347.4344Q461.5 348.0594 461.89062 348.3875Q462.29688 348.71564 463.03125 348.71564Q463.75 348.71564 464.09375 348.4344Q464.45312 348.1375 464.45312 347.73126Q464.45312 347.3719 464.14062 347.16876Q463.92188 347.02814 463.0625 346.8094Q461.90625 346.5125 461.45312 346.3094Q461.01562 346.09064 460.78125 345.71564Q460.54688 345.34064 460.54688 344.8719Q460.54688 344.46564 460.73438 344.10626Q460.92188 343.7469 461.25 343.5125Q461.5 343.34064 461.92188 343.21564Q462.34375 343.09064 462.84375 343.09064Q463.5625 343.09064 464.10938 343.3094Q464.67188 343.5125 464.9375 343.8719Q465.20312 344.23126 465.29688 344.825L464.26562 344.96564Q464.20312 344.4969 463.85938 344.23126Q463.53125 343.95 462.90625 343.95Q462.1875 343.95 461.875 344.2Q461.5625 344.4344 461.5625 344.7625Q461.5625 344.96564 461.6875 345.1219Q461.82812 345.29376 462.09375 345.40314Q462.25 345.46564 463.03125 345.66876Q464.15625 345.98126 464.59375 346.16876Q465.03125 346.35626 465.28125 346.71564Q465.53125 347.075 465.53125 347.6219Q465.53125 348.15314 465.21875 348.6219Q464.92188 349.075 464.34375 349.34064Q463.76562 349.59064 463.03125 349.59064Q461.8125 349.59064 461.17188 349.09064Q460.54688 348.575 460.375 347.59064ZM471.85938 348.6844Q471.26562 349.1844 470.71875 349.3875Q470.1875 349.59064 469.5625 349.59064Q468.53125 349.59064 467.98438 349.09064Q467.4375 348.59064 467.4375 347.8094Q467.4375 347.35626 467.64062 346.98126Q467.84375 346.59064 468.1875 346.3719Q468.53125 346.1375 468.95312 346.02814Q469.25 345.9344 469.89062 345.85626Q471.15625 345.71564 471.76562 345.4969Q471.76562 345.27814 471.76562 345.23126Q471.76562 344.575 471.46875 344.3094Q471.0625 343.96564 470.26562 343.96564Q469.53125 343.96564 469.17188 344.23126Q468.8125 344.48126 468.64062 345.1375L467.60938 344.9969Q467.75 344.34064 468.07812 343.9344Q468.40625 343.52814 469.01562 343.3094Q469.625 343.09064 470.42188 343.09064Q471.21875 343.09064 471.71875 343.27814Q472.21875 343.46564 472.45312 343.7469Q472.6875 344.02814 472.78125 344.46564Q472.82812 344.73126 472.82812 345.4344L472.82812 346.84064Q472.82812 348.3094 472.89062 348.7Q472.96875 349.09064 473.17188 349.45L472.0625 349.45Q471.90625 349.1219 471.85938 348.6844ZM471.76562 346.325Q471.1875 346.5594 470.04688 346.73126Q469.39062 346.825 469.125 346.95Q468.85938 347.0594 468.70312 347.27814Q468.5625 347.4969 468.5625 347.77814Q468.5625 348.2 468.875 348.48126Q469.20312 348.7625 469.8125 348.7625Q470.42188 348.7625 470.89062 348.4969Q471.375 348.23126 471.59375 347.7625Q471.76562 347.40314 471.76562 346.71564L471.76562 346.325ZM474.59375 349.96564L475.625 350.1219Q475.6875 350.59064 475.98438 350.8094Q476.375 351.10626 477.04688 351.10626Q477.78125 351.10626 478.17188 350.8094Q478.57812 350.5125 478.71875 349.9969Q478.8125 349.66876 478.79688 348.6375Q478.10938 349.45 477.07812 349.45Q475.79688 349.45 475.09375 348.52814Q474.39062 347.59064 474.39062 346.3094Q474.39062 345.41876 474.70312 344.66876Q475.03125 343.90314 475.64062 343.4969Q476.25 343.09064 477.07812 343.09064Q478.1875 343.09064 478.90625 343.98126L478.90625 343.23126L479.875 343.23126L479.875 348.60626Q479.875 350.0594 479.57812 350.66876Q479.28125 351.27814 478.64062 351.6219Q478.0 351.98126 477.0625 351.98126Q475.95312 351.98126 475.26562 351.48126Q474.57812 350.98126 474.59375 349.96564ZM475.46875 346.23126Q475.46875 347.45 475.95312 348.0125Q476.4375 348.575 477.17188 348.575Q477.90625 348.575 478.39062 348.0125Q478.89062 347.45 478.89062 346.2625Q478.89062 345.1219 478.375 344.54376Q477.875 343.96564 477.15625 343.96564Q476.45312 343.96564 475.95312 344.54376Q475.46875 345.10626 475.46875 346.23126ZM486.04688 347.45L487.14062 347.575Q486.89062 348.52814 486.1875 349.0594Q485.48438 349.59064 484.40625 349.59064Q483.04688 349.59064 482.23438 348.7469Q481.4375 347.90314 481.4375 346.3875Q481.4375 344.825 482.25 343.96564Q483.0625 343.09064 484.34375 343.09064Q485.59375 343.09064 486.375 343.9344Q487.17188 344.77814 487.17188 346.325Q487.17188 346.41876 487.17188 346.60626L482.53125 346.60626Q482.59375 347.6375 483.10938 348.1844Q483.625 348.71564 484.40625 348.71564Q484.98438 348.71564 485.39062 348.41876Q485.8125 348.10626 486.04688 347.45ZM482.59375 345.7469L486.0625 345.7469Q486.0 344.95 485.67188 344.5594Q485.15625 343.95 484.35938 343.95Q483.625 343.95 483.125 344.4344Q482.64062 344.91876 482.59375 345.7469ZM493.8125 351.98126Q492.9375 350.8719 492.32812 349.40314Q491.73438 347.91876 491.73438 346.34064Q491.73438 344.95 492.17188 343.66876Q492.70312 342.1844 493.8125 340.71564L494.5625 340.71564Q493.85938 341.9344 493.625 342.45Q493.26562 343.2625 493.0625 344.1375Q492.8125 345.23126 492.8125 346.34064Q492.8125 349.16876 494.5625 351.98126L493.8125 351.98126ZM495.79688 349.45L495.79688 340.85626L496.85938 340.85626L496.85938 345.7625L499.34375 343.23126L500.71875 343.23126L498.32812 345.52814L500.95312 349.45L499.65625 349.45L497.59375 346.2625L496.85938 346.98126L496.85938 349.45L495.79688 349.45ZM501.875 349.45L501.875 340.85626L505.10938 340.85626Q506.09375 340.85626 506.6875 341.1219Q507.28125 341.3875 507.60938 341.9344Q507.95312 342.46564 507.95312 343.0594Q507.95312 343.60626 507.65625 344.09064Q507.35938 344.575 506.75 344.8719Q507.53125 345.10626 507.9375 345.66876Q508.35938 346.21564 508.35938 346.96564Q508.35938 347.5594 508.10938 348.09064Q507.85938 348.60626 507.48438 348.8875Q507.10938 349.16876 506.53125 349.3094Q505.96875 349.45 505.15625 349.45L501.875 349.45ZM503.01562 344.46564L504.875 344.46564Q505.625 344.46564 505.95312 344.3719Q506.39062 344.2469 506.60938 343.95Q506.82812 343.6375 506.82812 343.1844Q506.82812 342.7625 506.625 342.4344Q506.42188 342.10626 506.03125 341.9969Q505.65625 341.8719 504.73438 341.8719L503.01562 341.8719L503.01562 344.46564ZM503.01562 348.4344L505.15625 348.4344Q505.70312 348.4344 505.92188 348.3875Q506.32812 348.325 506.57812 348.16876Q506.84375 347.9969 507.01562 347.6844Q507.1875 347.3719 507.1875 346.96564Q507.1875 346.48126 506.9375 346.1219Q506.70312 345.7625 506.26562 345.6219Q505.82812 345.48126 505.0 345.48126L503.01562 345.48126L503.01562 348.4344ZM510.48438 351.98126L509.73438 351.98126Q511.48438 349.16876 511.48438 346.34064Q511.48438 345.2469 511.23438 344.15314Q511.03125 343.27814 510.67188 342.46564Q510.4375 341.95 509.73438 340.71564L510.48438 340.71564Q511.57812 342.1844 512.1094 343.66876Q512.5625 344.95 512.5625 346.34064Q512.5625 347.91876 511.95312 349.40314Q511.34375 350.8719 510.48438 351.98126Z" fill-rule="nonzero"/><path fill="#757575" d="M182.57812 37.55L182.57812 23.2375L188.92188 23.2375Q190.82812 23.2375 191.82812 23.628124Q192.82812 24.003124 193.42188 24.9875Q194.01562 25.95625 194.01562 27.14375Q194.01562 28.659374 193.03125 29.70625Q192.04688 30.753124 189.98438 31.034374Q190.73438 31.39375 191.125 31.753124Q191.95312 32.503124 192.70312 33.659374L195.1875 37.55L192.8125 37.55L190.90625 34.565624Q190.07812 33.284374 189.54688 32.596874Q189.01562 31.909374 188.57812 31.64375Q188.15625 31.3625 187.71875 31.253124Q187.39062 31.190624 186.67188 31.190624L184.46875 31.190624L184.46875 37.55L182.57812 37.55ZM184.46875 29.55L188.54688 29.55Q189.84375 29.55 190.5625 29.284374Q191.29688 29.01875 191.67188 28.425Q192.0625 27.83125 192.0625 27.14375Q192.0625 26.128124 191.32812 25.471874Q190.59375 24.815624 189.0 24.815624L184.46875 24.815624L184.46875 29.55ZM203.42188 34.20625L205.23438 34.440624Q204.8125 36.01875 203.64062 36.909374Q202.48438 37.784374 200.67188 37.784374Q198.40625 37.784374 197.0625 36.39375Q195.73438 34.9875 195.73438 32.45625Q195.73438 29.83125 197.07812 28.39375Q198.42188 26.940624 200.57812 26.940624Q202.65625 26.940624 203.96875 28.3625Q205.29688 29.76875 205.29688 32.346874Q205.29688 32.503124 205.28125 32.815624L197.54688 32.815624Q197.64062 34.51875 198.51562 35.425Q199.39062 36.33125 200.6875 36.33125Q201.65625 36.33125 202.32812 35.83125Q203.01562 35.315624 203.42188 34.20625ZM197.64062 31.3625L203.4375 31.3625Q203.32812 30.065624 202.78125 29.409374Q201.9375 28.39375 200.59375 28.39375Q199.39062 28.39375 198.5625 29.20625Q197.73438 30.003124 197.64062 31.3625ZM214.09375 36.26875Q213.10938 37.096874 212.20312 37.440624Q211.29688 37.784374 210.26562 37.784374Q208.5625 37.784374 207.64062 36.95625Q206.71875 36.1125 206.71875 34.815624Q206.71875 34.05 207.0625 33.425Q207.42188 32.8 207.98438 32.425Q208.54688 32.034374 209.25 31.83125Q209.76562 31.70625 210.8125 31.565624Q212.9375 31.315624 213.9375 30.971874Q213.95312 30.6125 213.95312 30.503124Q213.95312 29.440624 213.45312 28.9875Q212.78125 28.39375 211.45312 28.39375Q210.20312 28.39375 209.60938 28.83125Q209.03125 29.26875 208.75 30.378124L207.03125 30.14375Q207.26562 29.034374 207.79688 28.3625Q208.32812 27.675 209.34375 27.315624Q210.35938 26.940624 211.70312 26.940624Q213.03125 26.940624 213.85938 27.253124Q214.6875 27.565624 215.07812 28.05Q215.46875 28.51875 215.625 29.2375Q215.71875 29.690624 215.71875 30.8625L215.71875 33.20625Q215.71875 35.659374 215.82812 36.315624Q215.9375 36.95625 216.28125 37.55L214.4375 37.55Q214.17188 37.003124 214.09375 36.26875ZM213.9375 32.346874Q212.98438 32.7375 211.0625 33.003124Q209.98438 33.159374 209.53125 33.3625Q209.09375 33.55 208.84375 33.925Q208.59375 34.3 208.59375 34.76875Q208.59375 35.471874 209.125 35.940624Q209.65625 36.409374 210.6875 36.409374Q211.70312 36.409374 212.48438 35.971874Q213.28125 35.51875 213.65625 34.753124Q213.9375 34.14375 213.9375 32.9875L213.9375 32.346874ZM225.09375 33.753124L226.8125 33.971874Q226.53125 35.76875 225.35938 36.784374Q224.20312 37.784374 222.5 37.784374Q220.375 37.784374 219.07812 36.39375Q217.78125 35.003124 217.78125 32.409374Q217.78125 30.721874 218.32812 29.471874Q218.89062 28.20625 220.03125 27.58125Q221.17188 26.940624 222.51562 26.940624Q224.20312 26.940624 225.26562 27.8Q226.34375 28.659374 226.65625 30.221874L224.9375 30.4875Q224.70312 29.440624 224.07812 28.925Q223.45312 28.39375 222.57812 28.39375Q221.25 28.39375 220.42188 29.346874Q219.59375 30.3 219.59375 32.346874Q219.59375 34.440624 220.39062 35.39375Q221.1875 36.33125 222.48438 36.33125Q223.51562 36.33125 224.20312 35.70625Q224.90625 35.065624 225.09375 33.753124ZM232.15625 35.971874L232.40625 37.534374Q231.67188 37.690624 231.07812 37.690624Q230.125 37.690624 229.59375 37.39375Q229.07812 37.08125 228.85938 36.596874Q228.64062 36.096874 228.64062 34.51875L228.64062 28.55L227.35938 28.55L227.35938 27.175L228.64062 27.175L228.64062 24.6125L230.39062 23.55L230.39062 27.175L232.15625 27.175L232.15625 28.55L230.39062 28.55L230.39062 34.6125Q230.39062 35.3625 230.48438 35.58125Q230.57812 35.784374 230.78125 35.925Q231.0 36.05 231.39062 36.05Q231.67188 36.05 232.15625 35.971874ZM239.90625 32.95625L241.6875 32.8Q241.8125 33.8625 242.26562 34.55Q242.73438 35.2375 243.70312 35.675Q244.6875 36.096874 245.92188 36.096874Q247.0 36.096874 247.82812 35.784374Q248.65625 35.45625 249.0625 34.89375Q249.46875 34.33125 249.46875 33.659374Q249.46875 32.9875 249.07812 32.4875Q248.6875 31.9875 247.79688 31.64375Q247.21875 31.409374 245.23438 30.940624Q243.26562 30.471874 242.48438 30.05Q241.45312 29.51875 240.95312 28.721874Q240.45312 27.925 240.45312 26.940624Q240.45312 25.846874 241.0625 24.909374Q241.67188 23.971874 242.85938 23.4875Q244.04688 22.9875 245.48438 22.9875Q247.07812 22.9875 248.29688 23.503124Q249.51562 24.01875 250.15625 25.01875Q250.8125 26.003124 250.85938 27.26875L249.04688 27.409374Q248.90625 26.05 248.0625 25.3625Q247.21875 24.659374 245.5625 24.659374Q243.84375 24.659374 243.04688 25.3Q242.26562 25.925 242.26562 26.8Q242.26562 27.58125 242.82812 28.08125Q243.375 28.58125 245.6875 29.096874Q248.0 29.6125 248.85938 30.003124Q250.10938 30.58125 250.70312 31.471874Q251.29688 32.346874 251.29688 33.503124Q251.29688 34.64375 250.64062 35.659374Q249.98438 36.675 248.75 37.2375Q247.53125 37.8 246.0 37.8Q244.0625 37.8 242.75 37.2375Q241.4375 36.659374 240.6875 35.51875Q239.9375 34.378124 239.90625 32.95625ZM252.90625 32.95625L254.6875 32.8Q254.8125 33.8625 255.26562 34.55Q255.73438 35.2375 256.70312 35.675Q257.6875 36.096874 258.92188 36.096874Q260.0 36.096874 260.82812 35.784374Q261.65625 35.45625 262.0625 34.89375Q262.46875 34.33125 262.46875 33.659374Q262.46875 32.9875 262.07812 32.4875Q261.6875 31.9875 260.79688 31.64375Q260.21875 31.409374 258.23438 30.940624Q256.26562 30.471874 255.48438 30.05Q254.45312 29.51875 253.95312 28.721874Q253.45312 27.925 253.45312 26.940624Q253.45312 25.846874 254.0625 24.909374Q254.67188 23.971874 255.85938 23.4875Q257.04688 22.9875 258.48438 22.9875Q260.07812 22.9875 261.29688 23.503124Q262.51562 24.01875 263.15625 25.01875Q263.8125 26.003124 263.85938 27.26875L262.04688 27.409374Q261.90625 26.05 261.0625 25.3625Q260.21875 24.659374 258.5625 24.659374Q256.84375 24.659374 256.04688 25.3Q255.26562 25.925 255.26562 26.8Q255.26562 27.58125 255.82812 28.08125Q256.375 28.58125 258.6875 29.096874Q261.0 29.6125 261.85938 30.003124Q263.10938 30.58125 263.70312 31.471874Q264.29688 32.346874 264.29688 33.503124Q264.29688 34.64375 263.64062 35.659374Q262.98438 36.675 261.75 37.2375Q260.53125 37.8 259.0 37.8Q257.0625 37.8 255.75 37.2375Q254.4375 36.659374 253.6875 35.51875Q252.9375 34.378124 252.90625 32.95625ZM266.57812 37.55L266.57812 23.2375L272.92188 23.2375Q274.82812 23.2375 275.82812 23.628124Q276.82812 24.003124 277.42188 24.9875Q278.01562 25.95625 278.01562 27.14375Q278.01562 28.659374 277.03125 29.70625Q276.04688 30.753124 273.98438 31.034374Q274.73438 31.39375 275.125 31.753124Q275.95312 32.503124 276.70312 33.659374L279.1875 37.55L276.8125 37.55L274.90625 34.565624Q274.07812 33.284374 273.54688 32.596874Q273.01562 31.909374 272.57812 31.64375Q272.15625 31.3625 271.71875 31.253124Q271.39062 31.190624 270.67188 31.190624L268.46875 31.190624L268.46875 37.55L266.57812 37.55ZM268.46875 29.55L272.54688 29.55Q273.84375 29.55 274.5625 29.284374Q275.29688 29.01875 275.67188 28.425Q276.0625 27.83125 276.0625 27.14375Q276.0625 26.128124 275.32812 25.471874Q274.59375 24.815624 273.0 24.815624L268.46875 24.815624L268.46875 29.55ZM286.48438 37.55L286.48438 23.2375L289.34375 23.2375L292.71875 33.3625Q293.1875 34.784374 293.40625 35.4875Q293.65625 34.70625 294.17188 33.190624L297.59375 23.2375L300.14062 23.2375L300.14062 37.55L298.32812 37.55L298.32812 25.565624L294.15625 37.55L292.45312 37.55L288.3125 25.3625L288.3125 37.55L286.48438 37.55ZM310.42188 34.20625L312.23438 34.440624Q311.8125 36.01875 310.64062 36.909374Q309.48438 37.784374 307.67188 37.784374Q305.40625 37.784374 304.0625 36.39375Q302.73438 34.9875 302.73438 32.45625Q302.73438 29.83125 304.07812 28.39375Q305.42188 26.940624 307.57812 26.940624Q309.65625 26.940624 310.96875 28.3625Q312.29688 29.76875 312.29688 32.346874Q312.29688 32.503124 312.28125 32.815624L304.54688 32.815624Q304.64062 34.51875 305.51562 35.425Q306.39062 36.33125 307.6875 36.33125Q308.65625 36.33125 309.32812 35.83125Q310.01562 35.315624 310.42188 34.20625ZM304.64062 31.3625L310.4375 31.3625Q310.32812 30.065624 309.78125 29.409374Q308.9375 28.39375 307.59375 28.39375Q306.39062 28.39375 305.5625 29.20625Q304.73438 30.003124 304.64062 31.3625ZM314.3125 37.55L314.3125 27.175L315.89062 27.175L315.89062 28.628124Q316.375 27.878124 317.1875 27.409374Q318.0 26.940624 319.03125 26.940624Q320.1875 26.940624 320.92188 27.425Q321.65625 27.89375 321.96875 28.753124Q323.20312 26.940624 325.17188 26.940624Q326.71875 26.940624 327.54688 27.8Q328.375 28.659374 328.375 30.425L328.375 37.55L326.625 37.55L326.625 31.01875Q326.625 29.95625 326.45312 29.503124Q326.28125 29.034374 325.82812 28.753124Q325.39062 28.471874 324.78125 28.471874Q323.6875 28.471874 322.95312 29.20625Q322.23438 29.925 322.23438 31.51875L322.23438 37.55L320.48438 37.55L320.48438 30.815624Q320.48438 29.64375 320.04688 29.065624Q319.625 28.471874 318.64062 28.471874Q317.90625 28.471874 317.26562 28.8625Q316.64062 29.253124 316.35938 30.003124Q316.07812 30.753124 316.07812 32.175L316.07812 37.55L314.3125 37.55ZM329.67188 32.3625Q329.67188 29.4875 331.26562 28.096874Q332.60938 26.940624 334.53125 26.940624Q336.67188 26.940624 338.01562 28.346874Q339.375 29.753124 339.375 32.221874Q339.375 34.221874 338.78125 35.378124Q338.1875 36.51875 337.03125 37.159374Q335.89062 37.784374 334.53125 37.784374Q332.34375 37.784374 331.0 36.39375Q329.67188 34.9875 329.67188 32.3625ZM331.46875 32.3625Q331.46875 34.3625 332.32812 35.346874Q333.20312 36.33125 334.53125 36.33125Q335.84375 36.33125 336.70312 35.346874Q337.57812 34.346874 337.57812 32.3Q337.57812 30.378124 336.70312 29.39375Q335.82812 28.39375 334.53125 28.39375Q333.20312 28.39375 332.32812 29.39375Q331.46875 30.378124 331.46875 32.3625ZM341.29688 37.55L341.29688 27.175L342.875 27.175L342.875 28.753124Q343.48438 27.64375 344.0 27.3Q344.51562 26.940624 345.125 26.940624Q346.01562 26.940624 346.9375 27.503124L346.32812 29.14375Q345.6875 28.753124 345.04688 28.753124Q344.46875 28.753124 344.0 29.1125Q343.54688 29.45625 343.34375 30.065624Q343.0625 31.003124 343.0625 32.1125L343.0625 37.55L341.29688 37.55ZM348.23438 41.55L348.04688 39.89375Q348.625 40.05 349.04688 40.05Q349.64062 40.05 349.98438 39.846874Q350.34375 39.659374 350.5625 39.315624Q350.73438 39.05 351.10938 38.003124Q351.15625 37.846874 351.26562 37.565624L347.32812 27.175L349.21875 27.175L351.375 33.190624Q351.79688 34.33125 352.125 35.58125Q352.4375 34.378124 352.84375 33.221874L355.0625 27.175L356.82812 27.175L352.875 37.721874Q352.25 39.440624 351.89062 40.08125Q351.42188 40.95625 350.8125 41.346874Q350.21875 41.753124 349.375 41.753124Q348.85938 41.753124 348.23438 41.55ZM373.9375 23.2375L375.82812 23.2375L375.82812 31.503124Q375.82812 33.659374 375.34375 34.940624Q374.85938 36.20625 373.57812 37.003124Q372.3125 37.8 370.23438 37.8Q368.21875 37.8 366.9375 37.1125Q365.67188 36.409374 365.125 35.096874Q364.57812 33.784374 364.57812 31.503124L364.57812 23.2375L366.46875 23.2375L366.46875 31.4875Q366.46875 33.3625 366.8125 34.253124Q367.15625 35.128124 368.0 35.6125Q368.84375 36.08125 370.07812 36.08125Q372.15625 36.08125 373.04688 35.14375Q373.9375 34.190624 373.9375 31.4875L373.9375 23.2375ZM376.60938 34.45625L378.35938 34.175Q378.5 35.221874 379.17188 35.784374Q379.84375 36.33125 381.04688 36.33125Q382.25 36.33125 382.82812 35.846874Q383.42188 35.346874 383.42188 34.690624Q383.42188 34.096874 382.90625 33.753124Q382.54688 33.51875 381.10938 33.159374Q379.17188 32.659374 378.42188 32.315624Q377.6875 31.95625 377.29688 31.33125Q376.90625 30.690624 376.90625 29.925Q376.90625 29.2375 377.21875 28.64375Q377.54688 28.05 378.09375 27.659374Q378.5 27.3625 379.20312 27.159374Q379.92188 26.940624 380.73438 26.940624Q381.95312 26.940624 382.875 27.3Q383.79688 27.64375 384.23438 28.253124Q384.67188 28.846874 384.84375 29.846874L383.125 30.08125Q383.0 29.284374 382.4375 28.846874Q381.875 28.39375 380.85938 28.39375Q379.64062 28.39375 379.125 28.8Q378.60938 29.190624 378.60938 29.721874Q378.60938 30.065624 378.82812 30.346874Q379.03125 30.628124 379.5 30.815624Q379.76562 30.909374 381.04688 31.253124Q382.92188 31.753124 383.65625 32.08125Q384.39062 32.39375 384.8125 33.003124Q385.23438 33.596874 385.23438 34.503124Q385.23438 35.378124 384.71875 36.159374Q384.20312 36.940624 383.23438 37.3625Q382.26562 37.784374 381.04688 37.784374Q379.03125 37.784374 377.96875 36.940624Q376.90625 36.096874 376.60938 34.45625ZM394.09375 36.26875Q393.10938 37.096874 392.20312 37.440624Q391.29688 37.784374 390.26562 37.784374Q388.5625 37.784374 387.64062 36.95625Q386.71875 36.1125 386.71875 34.815624Q386.71875 34.05 387.0625 33.425Q387.42188 32.8 387.98438 32.425Q388.54688 32.034374 389.25 31.83125Q389.76562 31.70625 390.8125 31.565624Q392.9375 31.315624 393.9375 30.971874Q393.95312 30.6125 393.95312 30.503124Q393.95312 29.440624 393.45312 28.9875Q392.78125 28.39375 391.45312 28.39375Q390.20312 28.39375 389.60938 28.83125Q389.03125 29.26875 388.75 30.378124L387.03125 30.14375Q387.26562 29.034374 387.79688 28.3625Q388.32812 27.675 389.34375 27.315624Q390.35938 26.940624 391.70312 26.940624Q393.03125 26.940624 393.85938 27.253124Q394.6875 27.565624 395.07812 28.05Q395.46875 28.51875 395.625 29.2375Q395.71875 29.690624 395.71875 30.8625L395.71875 33.20625Q395.71875 35.659374 395.82812 36.315624Q395.9375 36.95625 396.28125 37.55L394.4375 37.55Q394.17188 37.003124 394.09375 36.26875ZM393.9375 32.346874Q392.98438 32.7375 391.0625 33.003124Q389.98438 33.159374 389.53125 33.3625Q389.09375 33.55 388.84375 33.925Q388.59375 34.3 388.59375 34.76875Q388.59375 35.471874 389.125 35.940624Q389.65625 36.409374 390.6875 36.409374Q391.70312 36.409374 392.48438 35.971874Q393.28125 35.51875 393.65625 34.753124Q393.9375 34.14375 393.9375 32.9875L393.9375 32.346874ZM398.0 38.409374L399.70312 38.659374Q399.8125 39.45625 400.29688 39.815624Q400.95312 40.3 402.09375 40.3Q403.3125 40.3 403.96875 39.815624Q404.64062 39.33125 404.875 38.45625Q405.01562 37.909374 405.0 36.190624Q403.84375 37.55 402.125 37.55Q399.98438 37.55 398.8125 36.003124Q397.64062 34.45625 397.64062 32.3Q397.64062 30.815624 398.17188 29.565624Q398.71875 28.315624 399.73438 27.628124Q400.76562 26.940624 402.14062 26.940624Q403.96875 26.940624 405.17188 28.425L405.17188 27.175L406.78125 27.175L406.78125 36.14375Q406.78125 38.565624 406.28125 39.565624Q405.79688 40.58125 404.71875 41.159374Q403.65625 41.753124 402.09375 41.753124Q400.25 41.753124 399.09375 40.925Q397.95312 40.096874 398.0 38.409374ZM399.45312 32.175Q399.45312 34.221874 400.26562 35.159374Q401.07812 36.096874 402.29688 36.096874Q403.5 36.096874 404.3125 35.159374Q405.14062 34.221874 405.14062 32.2375Q405.14062 30.33125 404.29688 29.3625Q403.45312 28.39375 402.26562 28.39375Q401.09375 28.39375 400.26562 29.346874Q399.45312 30.3 399.45312 32.175ZM416.42188 34.20625L418.23438 34.440624Q417.8125 36.01875 416.64062 36.909374Q415.48438 37.784374 413.67188 37.784374Q411.40625 37.784374 410.0625 36.39375Q408.73438 34.9875 408.73438 32.45625Q408.73438 29.83125 410.07812 28.39375Q411.42188 26.940624 413.57812 26.940624Q415.65625 26.940624 416.96875 28.3625Q418.29688 29.76875 418.29688 32.346874Q418.29688 32.503124 418.28125 32.815624L410.54688 32.815624Q410.64062 34.51875 411.51562 35.425Q412.39062 36.33125 413.6875 36.33125Q414.65625 36.33125 415.32812 35.83125Q416.01562 35.315624 416.42188 34.20625ZM410.64062 31.3625L416.4375 31.3625Q416.32812 30.065624 415.78125 29.409374Q414.9375 28.39375 413.59375 28.39375Q412.39062 28.39375 411.5625 29.20625Q410.73438 30.003124 410.64062 31.3625Z" fill-rule="nonzero"/></svg>