<svg xmlns="http://www.w3.org/2000/svg" width="1100" height="560" viewBox="0 0 1100 560" role="img" aria-labelledby="title desc">
  <title id="title">FlowLog Batch vs Incremental Runtime</title>
  <desc id="desc">30 first-parent OPAM commits; initial load included for context</desc>
  <style>
    .bg { fill: #fbfaf8; }
    .title { font: 700 24px -apple-system, BlinkMacSystemFont, "Segoe UI", sans-serif; fill: #1f2933; }
    .subtitle { font: 14px -apple-system, BlinkMacSystemFont, "Segoe UI", sans-serif; fill: #52616b; }
    .axis { stroke: #7b8794; stroke-width: 1; }
    .grid { stroke: #d9e2ec; stroke-width: 1; }
    .tick { font: 12px -apple-system, BlinkMacSystemFont, "Segoe UI", sans-serif; fill: #52616b; }
    .label { font: 13px -apple-system, BlinkMacSystemFont, "Segoe UI", sans-serif; fill: #334e68; }
    .legend { font: 13px -apple-system, BlinkMacSystemFont, "Segoe UI", sans-serif; fill: #334e68; }
  </style>
  <rect class="bg" width="1100" height="560" rx="0" />
  <text x="74" y="31" class="title">FlowLog Batch vs Incremental Runtime</text>
  <text x="74" y="50" class="subtitle">30 first-parent OPAM commits; initial load included for context</text>
  <line x1="74" y1="58" x2="98" y2="58" stroke="#1f77b4" stroke-width="3" /><text x="106" y="62" class="legend">batch recomputation ms</text><line x1="324" y1="58" x2="348" y2="58" stroke="#c2410c" stroke-width="3" /><text x="356" y="62" class="legend">incremental commit ms</text>
  <line x1="74" y1="484.0" x2="1066" y2="484.0" class="grid" /><text x="62" y="488.0" text-anchor="end" class="tick">0</text><line x1="74" y1="406.0" x2="1066" y2="406.0" class="grid" /><text x="62" y="410.0" text-anchor="end" class="tick">240</text><line x1="74" y1="328.0" x2="1066" y2="328.0" class="grid" /><text x="62" y="332.0" text-anchor="end" class="tick">480</text><line x1="74" y1="250.0" x2="1066" y2="250.0" class="grid" /><text x="62" y="254.0" text-anchor="end" class="tick">720</text><line x1="74" y1="172.0" x2="1066" y2="172.0" class="grid" /><text x="62" y="176.0" text-anchor="end" class="tick">960</text><line x1="74" y1="94.0" x2="1066" y2="94.0" class="grid" /><text x="62" y="98.0" text-anchor="end" class="tick">1200</text>
  <line x1="74" y1="94" x2="74" y2="484" class="axis" />
  <line x1="74" y1="484" x2="1066" y2="484" class="axis" />
  <line x1="74.0" y1="484" x2="74.0" y2="490" class="axis" /><text x="74.0" y="508" text-anchor="middle" class="tick">0</text><line x1="210.8" y1="484" x2="210.8" y2="490" class="axis" /><text x="210.8" y="508" text-anchor="middle" class="tick">4</text><line x1="381.9" y1="484" x2="381.9" y2="490" class="axis" /><text x="381.9" y="508" text-anchor="middle" class="tick">9</text><line x1="552.9" y1="484" x2="552.9" y2="490" class="axis" /><text x="552.9" y="508" text-anchor="middle" class="tick">14</text><line x1="723.9" y1="484" x2="723.9" y2="490" class="axis" /><text x="723.9" y="508" text-anchor="middle" class="tick">19</text><line x1="895.0" y1="484" x2="895.0" y2="490" class="axis" /><text x="895.0" y="508" text-anchor="middle" class="tick">24</text><line x1="1066.0" y1="484" x2="1066.0" y2="490" class="axis" /><text x="1066.0" y="508" text-anchor="middle" class="tick">29</text>
  <polyline points="74.0,116.8 108.2,233.0 142.4,194.8 176.6,231.8 210.8,228.9 245.0,231.2 279.2,232.4 313.4,222.8 347.7,230.6 381.9,229.0 416.1,229.3 450.3,232.7 484.5,231.2 518.7,227.7 552.9,232.2 587.1,232.4 621.3,227.9 655.5,228.9 689.7,225.5 723.9,229.6 758.1,226.7 792.3,230.0 826.6,227.9 860.8,231.9 895.0,177.0 929.2,231.5 963.4,228.8 997.6,229.2 1031.8,228.8 1066.0,229.8" fill="none" stroke="#1f77b4" stroke-width="2.2" stroke-linejoin="round" stroke-linecap="round" /><polyline points="74.0,-130.8 108.2,483.1 142.4,483.7 176.6,481.3 210.8,483.6 245.0,483.7 279.2,483.9 313.4,483.8 347.7,483.8 381.9,483.7 416.1,483.8 450.3,483.7 484.5,483.4 518.7,483.7 552.9,483.4 587.1,483.6 621.3,483.7 655.5,483.8 689.7,483.8 723.9,483.8 758.1,483.8 792.3,483.9 826.6,483.8 860.8,483.6 895.0,483.5 929.2,483.6 963.4,483.7 997.6,483.7 1031.8,483.6 1066.0,483.8" fill="none" stroke="#c2410c" stroke-width="2.2" stroke-linejoin="round" stroke-linecap="round" />
  <circle cx="74.0" cy="116.8" r="2.3" fill="#1f77b4" /><circle cx="108.2" cy="233.0" r="2.3" fill="#1f77b4" /><circle cx="142.4" cy="194.8" r="2.3" fill="#1f77b4" /><circle cx="176.6" cy="231.8" r="2.3" fill="#1f77b4" /><circle cx="210.8" cy="228.9" r="2.3" fill="#1f77b4" /><circle cx="245.0" cy="231.2" r="2.3" fill="#1f77b4" /><circle cx="279.2" cy="232.4" r="2.3" fill="#1f77b4" /><circle cx="313.4" cy="222.8" r="2.3" fill="#1f77b4" /><circle cx="347.7" cy="230.6" r="2.3" fill="#1f77b4" /><circle cx="381.9" cy="229.0" r="2.3" fill="#1f77b4" /><circle cx="416.1" cy="229.3" r="2.3" fill="#1f77b4" /><circle cx="450.3" cy="232.7" r="2.3" fill="#1f77b4" /><circle cx="484.5" cy="231.2" r="2.3" fill="#1f77b4" /><circle cx="518.7" cy="227.7" r="2.3" fill="#1f77b4" /><circle cx="552.9" cy="232.2" r="2.3" fill="#1f77b4" /><circle cx="587.1" cy="232.4" r="2.3" fill="#1f77b4" /><circle cx="621.3" cy="227.9" r="2.3" fill="#1f77b4" /><circle cx="655.5" cy="228.9" r="2.3" fill="#1f77b4" /><circle cx="689.7" cy="225.5" r="2.3" fill="#1f77b4" /><circle cx="723.9" cy="229.6" r="2.3" fill="#1f77b4" /><circle cx="758.1" cy="226.7" r="2.3" fill="#1f77b4" /><circle cx="792.3" cy="230.0" r="2.3" fill="#1f77b4" /><circle cx="826.6" cy="227.9" r="2.3" fill="#1f77b4" /><circle cx="860.8" cy="231.9" r="2.3" fill="#1f77b4" /><circle cx="895.0" cy="177.0" r="2.3" fill="#1f77b4" /><circle cx="929.2" cy="231.5" r="2.3" fill="#1f77b4" /><circle cx="963.4" cy="228.8" r="2.3" fill="#1f77b4" /><circle cx="997.6" cy="229.2" r="2.3" fill="#1f77b4" /><circle cx="1031.8" cy="228.8" r="2.3" fill="#1f77b4" /><circle cx="1066.0" cy="229.8" r="2.3" fill="#1f77b4" /><circle cx="74.0" cy="-130.8" r="2.3" fill="#c2410c" /><circle cx="108.2" cy="483.1" r="2.3" fill="#c2410c" /><circle cx="142.4" cy="483.7" r="2.3" fill="#c2410c" /><circle cx="176.6" cy="481.3" r="2.3" fill="#c2410c" /><circle cx="210.8" cy="483.6" r="2.3" fill="#c2410c" /><circle cx="245.0" cy="483.7" r="2.3" fill="#c2410c" /><circle cx="279.2" cy="483.9" r="2.3" fill="#c2410c" /><circle cx="313.4" cy="483.8" r="2.3" fill="#c2410c" /><circle cx="347.7" cy="483.8" r="2.3" fill="#c2410c" /><circle cx="381.9" cy="483.7" r="2.3" fill="#c2410c" /><circle cx="416.1" cy="483.8" r="2.3" fill="#c2410c" /><circle cx="450.3" cy="483.7" r="2.3" fill="#c2410c" /><circle cx="484.5" cy="483.4" r="2.3" fill="#c2410c" /><circle cx="518.7" cy="483.7" r="2.3" fill="#c2410c" /><circle cx="552.9" cy="483.4" r="2.3" fill="#c2410c" /><circle cx="587.1" cy="483.6" r="2.3" fill="#c2410c" /><circle cx="621.3" cy="483.7" r="2.3" fill="#c2410c" /><circle cx="655.5" cy="483.8" r="2.3" fill="#c2410c" /><circle cx="689.7" cy="483.8" r="2.3" fill="#c2410c" /><circle cx="723.9" cy="483.8" r="2.3" fill="#c2410c" /><circle cx="758.1" cy="483.8" r="2.3" fill="#c2410c" /><circle cx="792.3" cy="483.9" r="2.3" fill="#c2410c" /><circle cx="826.6" cy="483.8" r="2.3" fill="#c2410c" /><circle cx="860.8" cy="483.6" r="2.3" fill="#c2410c" /><circle cx="895.0" cy="483.5" r="2.3" fill="#c2410c" /><circle cx="929.2" cy="483.6" r="2.3" fill="#c2410c" /><circle cx="963.4" cy="483.7" r="2.3" fill="#c2410c" /><circle cx="997.6" cy="483.7" r="2.3" fill="#c2410c" /><circle cx="1031.8" cy="483.6" r="2.3" fill="#c2410c" /><circle cx="1066.0" cy="483.8" r="2.3" fill="#c2410c" />
  <text x="550.0" y="538" text-anchor="middle" class="label">commit index in replay window</text>
  <text transform="translate(22,289.0) rotate(-90)" text-anchor="middle" class="label">milliseconds</text>
</svg>
