<svg xmlns="http://www.w3.org/2000/svg" width="1100" height="520" viewBox="0 0 1100 520" role="img" aria-labelledby="title desc">
  <title id="title">Input Fact Delta Size</title>
  <desc id="desc">Inserted plus removed FlowLog input facts per commit</desc>
  <style>
    .bg { fill: #fbfaf8; }
    .title { font: 700 24px -apple-system, BlinkMacSystemFont, "Segoe UI", sans-serif; fill: #1f2933; }
    .subtitle { font: 14px -apple-system, BlinkMacSystemFont, "Segoe UI", sans-serif; fill: #52616b; }
    .axis { stroke: #7b8794; stroke-width: 1; }
    .grid { stroke: #d9e2ec; stroke-width: 1; }
    .tick { font: 12px -apple-system, BlinkMacSystemFont, "Segoe UI", sans-serif; fill: #52616b; }
    .label { font: 13px -apple-system, BlinkMacSystemFont, "Segoe UI", sans-serif; fill: #334e68; }
  </style>
  <rect class="bg" width="1100" height="520" />
  <text x="74" y="31" class="title">Input Fact Delta Size</text>
  <text x="74" y="50" class="subtitle">Inserted plus removed FlowLog input facts per commit</text>
  <line x1="74" y1="444.0" x2="1066" y2="444.0" class="grid" /><text x="62" y="448.0" text-anchor="end" class="tick">0</text><line x1="74" y1="371.6" x2="1066" y2="371.6" class="grid" /><text x="62" y="375.6" text-anchor="end" class="tick">1000</text><line x1="74" y1="299.2" x2="1066" y2="299.2" class="grid" /><text x="62" y="303.2" text-anchor="end" class="tick">2000</text><line x1="74" y1="226.8" x2="1066" y2="226.8" class="grid" /><text x="62" y="230.8" text-anchor="end" class="tick">3000</text><line x1="74" y1="154.4" x2="1066" y2="154.4" class="grid" /><text x="62" y="158.4" text-anchor="end" class="tick">4000</text><line x1="74" y1="82.0" x2="1066" y2="82.0" class="grid" /><text x="62" y="86.0" text-anchor="end" class="tick">5000</text>
  <line x1="74" y1="82" x2="74" y2="444" class="axis" />
  <line x1="74" y1="444" x2="1066" y2="444" class="axis" />
  <rect x="74.0" y="416.4" width="31.3" height="27.6" fill="#0f766e" /><rect x="108.3" y="437.3" width="31.3" height="6.7" fill="#0f766e" /><rect x="142.6" y="290.9" width="31.3" height="153.1" fill="#0f766e" /><rect x="176.9" y="436.8" width="31.3" height="7.2" fill="#0f766e" /><rect x="211.2" y="442.1" width="31.3" height="1.9" fill="#0f766e" /><rect x="245.6" y="444.0" width="31.3" height="0.0" fill="#0f766e" /><rect x="279.9" y="439.9" width="31.3" height="4.1" fill="#0f766e" /><rect x="314.2" y="438.2" width="31.3" height="5.8" fill="#0f766e" /><rect x="348.5" y="433.4" width="31.3" height="10.6" fill="#0f766e" /><rect x="382.8" y="434.9" width="31.3" height="9.1" fill="#0f766e" /><rect x="417.1" y="432.5" width="31.3" height="11.5" fill="#0f766e" /><rect x="451.4" y="403.9" width="31.3" height="40.1" fill="#0f766e" /><rect x="485.7" y="431.4" width="31.3" height="12.6" fill="#0f766e" /><rect x="520.0" y="413.2" width="31.3" height="30.8" fill="#0f766e" /><rect x="554.3" y="433.3" width="31.3" height="10.7" fill="#0f766e" /><rect x="588.7" y="437.6" width="31.3" height="6.4" fill="#0f766e" /><rect x="623.0" y="439.0" width="31.3" height="5.0" fill="#0f766e" /><rect x="657.3" y="439.9" width="31.3" height="4.1" fill="#0f766e" /><rect x="691.6" y="443.4" width="31.3" height="0.6" fill="#0f766e" /><rect x="725.9" y="438.7" width="31.3" height="5.3" fill="#0f766e" /><rect x="760.2" y="444.0" width="31.3" height="0.0" fill="#0f766e" /><rect x="794.5" y="440.9" width="31.3" height="3.1" fill="#0f766e" /><rect x="828.8" y="425.8" width="31.3" height="18.2" fill="#0f766e" /><rect x="863.1" y="438.9" width="31.3" height="5.1" fill="#0f766e" /><rect x="897.4" y="432.7" width="31.3" height="11.3" fill="#0f766e" /><rect x="931.8" y="433.2" width="31.3" height="10.8" fill="#0f766e" /><rect x="966.1" y="432.6" width="31.3" height="11.4" fill="#0f766e" /><rect x="1000.4" y="425.5" width="31.3" height="18.5" fill="#0f766e" /><rect x="1034.7" y="436.1" width="31.3" height="7.9" fill="#0f766e" />
  <text x="89.7" y="468" text-anchor="middle" class="tick">0</text><text x="226.9" y="468" text-anchor="middle" class="tick">4</text><text x="398.4" y="468" text-anchor="middle" class="tick">9</text><text x="570.0" y="468" text-anchor="middle" class="tick">14</text><text x="741.6" y="468" text-anchor="middle" class="tick">19</text><text x="913.1" y="468" text-anchor="middle" class="tick">24</text><text x="1050.3" y="468" text-anchor="middle" class="tick">28</text>
  <text x="550.0" y="498" text-anchor="middle" class="label">commit index in replay window</text>
  <text transform="translate(22,263.0) rotate(-90)" text-anchor="middle" class="label">facts</text>
</svg>
